<?xml version="1.0" encoding="UTF-8"?>
<svg xmlns="http://www.w3.org/2000/svg" xmlns:xlink="http://www.w3.org/1999/xlink" width="1920" height="1080" viewBox="0 0 1920 1080">
<defs>
<g>
<g id="glyph-0-0">
<path d="M 2 0 L 2 -0.5625 L 2.3125 -0.5625 C 2.5 -0.5625 2.675781 -0.582031 2.84375 -0.625 C 3.007812 -0.664062 3.144531 -0.75 3.25 -0.875 C 3.351562 -1 3.40625 -1.191406 3.40625 -1.453125 L 3.40625 -8.84375 L 2.125 -8.84375 C 1.726562 -8.84375 1.453125 -8.734375 1.296875 -8.515625 C 1.148438 -8.304688 1.0625 -8.050781 1.03125 -7.75 L 0.953125 -7.1875 L 0.265625 -7.1875 L 0.328125 -9.515625 L 7.84375 -9.515625 L 7.90625 -7.1875 L 7.203125 -7.1875 L 7.140625 -7.75 C 7.109375 -8.050781 7.015625 -8.304688 6.859375 -8.515625 C 6.710938 -8.734375 6.4375 -8.84375 6.03125 -8.84375 L 4.75 -8.84375 L 4.75 -1.515625 C 4.75 -1.242188 4.796875 -1.035156 4.890625 -0.890625 C 4.984375 -0.753906 5.113281 -0.664062 5.28125 -0.625 C 5.457031 -0.582031 5.644531 -0.5625 5.84375 -0.5625 L 6.140625 -0.5625 L 6.140625 0 Z "/>
</g>
<g id="glyph-0-1">
<path d="M 0.234375 0 L 0.234375 -0.5625 L 0.34375 -0.5625 C 0.550781 -0.5625 0.734375 -0.582031 0.890625 -0.625 C 1.054688 -0.664062 1.1875 -0.753906 1.28125 -0.890625 C 1.382812 -1.035156 1.4375 -1.242188 1.4375 -1.515625 L 1.4375 -8.65625 C 1.4375 -8.925781 1.382812 -9.125 1.28125 -9.25 C 1.1875 -9.382812 1.054688 -9.46875 0.890625 -9.5 C 0.722656 -9.539062 0.539062 -9.5625 0.34375 -9.5625 L 0.234375 -9.5625 L 0.234375 -10.125 L 2.6875 -10.125 L 2.6875 -7.203125 C 2.6875 -7.035156 2.679688 -6.863281 2.671875 -6.6875 C 2.671875 -6.519531 2.664062 -6.375 2.65625 -6.25 C 2.644531 -6.125 2.640625 -6.0625 2.640625 -6.0625 L 2.703125 -6.0625 C 2.835938 -6.332031 3 -6.554688 3.1875 -6.734375 C 3.382812 -6.921875 3.601562 -7.054688 3.84375 -7.140625 C 4.09375 -7.234375 4.367188 -7.28125 4.671875 -7.28125 C 5.429688 -7.28125 6.015625 -7.070312 6.421875 -6.65625 C 6.828125 -6.238281 7.03125 -5.578125 7.03125 -4.671875 L 7.03125 -1.515625 C 7.03125 -1.242188 7.070312 -1.035156 7.15625 -0.890625 C 7.25 -0.753906 7.367188 -0.664062 7.515625 -0.625 C 7.671875 -0.582031 7.847656 -0.5625 8.046875 -0.5625 L 8.09375 -0.5625 L 8.09375 0 L 5.765625 0 L 5.765625 -4.59375 C 5.765625 -5.175781 5.65625 -5.625 5.4375 -5.9375 C 5.226562 -6.257812 4.851562 -6.421875 4.3125 -6.421875 C 3.945312 -6.421875 3.640625 -6.332031 3.390625 -6.15625 C 3.148438 -5.976562 2.972656 -5.726562 2.859375 -5.40625 C 2.742188 -5.082031 2.6875 -4.703125 2.6875 -4.265625 L 2.6875 -1.453125 C 2.6875 -1.191406 2.738281 -1 2.84375 -0.875 C 2.945312 -0.75 3.078125 -0.664062 3.234375 -0.625 C 3.398438 -0.582031 3.582031 -0.5625 3.78125 -0.5625 L 3.828125 -0.5625 L 3.828125 0 Z "/>
</g>
<g id="glyph-0-2">
<path d="M 0.3125 0 L 0.3125 -0.5625 L 0.484375 -0.5625 C 0.671875 -0.5625 0.847656 -0.582031 1.015625 -0.625 C 1.179688 -0.664062 1.316406 -0.75 1.421875 -0.875 C 1.523438 -1 1.578125 -1.191406 1.578125 -1.453125 L 1.578125 -5.671875 C 1.578125 -5.941406 1.523438 -6.140625 1.421875 -6.265625 C 1.316406 -6.398438 1.179688 -6.484375 1.015625 -6.515625 C 0.847656 -6.554688 0.671875 -6.578125 0.484375 -6.578125 L 0.4375 -6.578125 L 0.4375 -7.140625 L 2.828125 -7.140625 L 2.828125 -1.515625 C 2.828125 -1.242188 2.875 -1.035156 2.96875 -0.890625 C 3.070312 -0.753906 3.207031 -0.664062 3.375 -0.625 C 3.539062 -0.582031 3.722656 -0.5625 3.921875 -0.5625 L 4.09375 -0.5625 L 4.09375 0 Z M 2.140625 -8.484375 C 1.929688 -8.484375 1.753906 -8.539062 1.609375 -8.65625 C 1.460938 -8.78125 1.390625 -8.992188 1.390625 -9.296875 C 1.390625 -9.609375 1.460938 -9.820312 1.609375 -9.9375 C 1.753906 -10.0625 1.929688 -10.125 2.140625 -10.125 C 2.347656 -10.125 2.523438 -10.0625 2.671875 -9.9375 C 2.828125 -9.820312 2.90625 -9.609375 2.90625 -9.296875 C 2.90625 -8.992188 2.828125 -8.78125 2.671875 -8.65625 C 2.523438 -8.539062 2.347656 -8.484375 2.140625 -8.484375 Z "/>
</g>
<g id="glyph-0-3">
<path d="M 2.796875 0.140625 C 2.347656 0.140625 1.957031 0.0859375 1.625 -0.015625 C 1.300781 -0.128906 1.046875 -0.289062 0.859375 -0.5 C 0.679688 -0.707031 0.59375 -0.96875 0.59375 -1.28125 C 0.59375 -1.519531 0.640625 -1.707031 0.734375 -1.84375 C 0.835938 -1.976562 0.953125 -2.070312 1.078125 -2.125 C 1.210938 -2.175781 1.332031 -2.203125 1.4375 -2.203125 C 1.4375 -1.734375 1.539062 -1.332031 1.75 -1 C 1.957031 -0.664062 2.332031 -0.5 2.875 -0.5 C 3.34375 -0.5 3.703125 -0.613281 3.953125 -0.84375 C 4.210938 -1.070312 4.34375 -1.363281 4.34375 -1.71875 C 4.34375 -1.9375 4.296875 -2.117188 4.203125 -2.265625 C 4.109375 -2.410156 3.941406 -2.550781 3.703125 -2.6875 C 3.472656 -2.820312 3.140625 -2.984375 2.703125 -3.171875 C 2.253906 -3.378906 1.878906 -3.578125 1.578125 -3.765625 C 1.285156 -3.953125 1.0625 -4.171875 0.90625 -4.421875 C 0.757812 -4.679688 0.6875 -5.003906 0.6875 -5.390625 C 0.6875 -5.992188 0.914062 -6.457031 1.375 -6.78125 C 1.832031 -7.101562 2.441406 -7.265625 3.203125 -7.265625 C 3.628906 -7.265625 3.984375 -7.207031 4.265625 -7.09375 C 4.554688 -6.988281 4.773438 -6.84375 4.921875 -6.65625 C 5.066406 -6.46875 5.140625 -6.257812 5.140625 -6.03125 C 5.140625 -5.789062 5.054688 -5.597656 4.890625 -5.453125 C 4.734375 -5.304688 4.5 -5.234375 4.1875 -5.234375 C 4.1875 -5.679688 4.09375 -6.03125 3.90625 -6.28125 C 3.71875 -6.53125 3.425781 -6.65625 3.03125 -6.65625 C 2.582031 -6.65625 2.257812 -6.550781 2.0625 -6.34375 C 1.863281 -6.144531 1.765625 -5.890625 1.765625 -5.578125 C 1.765625 -5.359375 1.820312 -5.171875 1.9375 -5.015625 C 2.050781 -4.867188 2.226562 -4.726562 2.46875 -4.59375 C 2.71875 -4.46875 3.035156 -4.328125 3.421875 -4.171875 C 3.890625 -3.972656 4.269531 -3.773438 4.5625 -3.578125 C 4.863281 -3.390625 5.082031 -3.164062 5.21875 -2.90625 C 5.351562 -2.644531 5.421875 -2.328125 5.421875 -1.953125 C 5.421875 -1.265625 5.179688 -0.742188 4.703125 -0.390625 C 4.222656 -0.0351562 3.585938 0.140625 2.796875 0.140625 Z "/>
</g>
<g id="glyph-0-4">
</g>
<g id="glyph-0-5">
<path d="M 2.734375 0.140625 C 2.335938 0.140625 1.984375 0.0625 1.671875 -0.09375 C 1.359375 -0.25 1.113281 -0.484375 0.9375 -0.796875 C 0.757812 -1.117188 0.671875 -1.519531 0.671875 -2 C 0.671875 -2.707031 0.921875 -3.226562 1.421875 -3.5625 C 1.921875 -3.90625 2.679688 -4.09375 3.703125 -4.125 L 4.8125 -4.171875 L 4.8125 -4.96875 C 4.8125 -5.289062 4.785156 -5.570312 4.734375 -5.8125 C 4.679688 -6.0625 4.566406 -6.253906 4.390625 -6.390625 C 4.210938 -6.535156 3.941406 -6.609375 3.578125 -6.609375 C 3.234375 -6.609375 2.972656 -6.546875 2.796875 -6.421875 C 2.617188 -6.296875 2.5 -6.125 2.4375 -5.90625 C 2.382812 -5.6875 2.359375 -5.4375 2.359375 -5.15625 C 1.984375 -5.15625 1.695312 -5.21875 1.5 -5.34375 C 1.3125 -5.476562 1.21875 -5.695312 1.21875 -6 C 1.21875 -6.3125 1.328125 -6.5625 1.546875 -6.75 C 1.765625 -6.9375 2.054688 -7.070312 2.421875 -7.15625 C 2.785156 -7.238281 3.1875 -7.28125 3.625 -7.28125 C 4.4375 -7.28125 5.046875 -7.101562 5.453125 -6.75 C 5.859375 -6.40625 6.0625 -5.8125 6.0625 -4.96875 L 6.0625 -1.515625 C 6.0625 -1.265625 6.085938 -1.070312 6.140625 -0.9375 C 6.191406 -0.800781 6.28125 -0.703125 6.40625 -0.640625 C 6.53125 -0.585938 6.691406 -0.5625 6.890625 -0.5625 L 6.9375 -0.5625 L 6.9375 0 L 5.125 0 L 4.921875 -1.140625 L 4.8125 -1.140625 C 4.625 -0.890625 4.441406 -0.671875 4.265625 -0.484375 C 4.085938 -0.296875 3.878906 -0.144531 3.640625 -0.03125 C 3.410156 0.0820312 3.109375 0.140625 2.734375 0.140625 Z M 3.03125 -0.6875 C 3.394531 -0.6875 3.707031 -0.757812 3.96875 -0.90625 C 4.238281 -1.0625 4.445312 -1.28125 4.59375 -1.5625 C 4.738281 -1.84375 4.8125 -2.171875 4.8125 -2.546875 L 4.8125 -3.625 L 3.953125 -3.578125 C 3.453125 -3.566406 3.054688 -3.492188 2.765625 -3.359375 C 2.472656 -3.222656 2.265625 -3.035156 2.140625 -2.796875 C 2.015625 -2.566406 1.953125 -2.28125 1.953125 -1.9375 C 1.953125 -1.65625 1.992188 -1.421875 2.078125 -1.234375 C 2.160156 -1.054688 2.28125 -0.921875 2.4375 -0.828125 C 2.59375 -0.734375 2.789062 -0.6875 3.03125 -0.6875 Z "/>
</g>
<g id="glyph-0-6">
<path d="M 3.296875 0.140625 C 2.703125 0.140625 2.21875 0.0703125 1.84375 -0.0625 C 1.476562 -0.207031 1.207031 -0.390625 1.03125 -0.609375 C 0.851562 -0.835938 0.765625 -1.082031 0.765625 -1.34375 C 0.765625 -1.613281 0.84375 -1.820312 1 -1.96875 C 1.15625 -2.125 1.359375 -2.203125 1.609375 -2.203125 C 1.609375 -1.734375 1.753906 -1.347656 2.046875 -1.046875 C 2.347656 -0.742188 2.769531 -0.59375 3.3125 -0.59375 C 3.664062 -0.59375 3.988281 -0.660156 4.28125 -0.796875 C 4.582031 -0.929688 4.828125 -1.15625 5.015625 -1.46875 C 5.203125 -1.78125 5.296875 -2.203125 5.296875 -2.734375 C 5.296875 -3.296875 5.078125 -3.742188 4.640625 -4.078125 C 4.210938 -4.410156 3.625 -4.578125 2.875 -4.578125 L 2.453125 -4.578125 L 2.453125 -5.265625 L 2.875 -5.265625 C 3.269531 -5.265625 3.625 -5.347656 3.9375 -5.515625 C 4.25 -5.679688 4.5 -5.921875 4.6875 -6.234375 C 4.875 -6.546875 4.96875 -6.910156 4.96875 -7.328125 C 4.96875 -7.847656 4.859375 -8.253906 4.640625 -8.546875 C 4.421875 -8.835938 4.054688 -8.984375 3.546875 -8.984375 C 3.148438 -8.984375 2.84375 -8.890625 2.625 -8.703125 C 2.414062 -8.515625 2.269531 -8.269531 2.1875 -7.96875 C 2.113281 -7.675781 2.078125 -7.351562 2.078125 -7 C 1.753906 -7 1.484375 -7.054688 1.265625 -7.171875 C 1.046875 -7.296875 0.9375 -7.523438 0.9375 -7.859375 C 0.9375 -8.210938 1.03125 -8.519531 1.21875 -8.78125 C 1.414062 -9.050781 1.707031 -9.265625 2.09375 -9.421875 C 2.488281 -9.578125 2.972656 -9.65625 3.546875 -9.65625 C 4.390625 -9.65625 5.066406 -9.46875 5.578125 -9.09375 C 6.085938 -8.726562 6.34375 -8.207031 6.34375 -7.53125 C 6.34375 -7.132812 6.25 -6.769531 6.0625 -6.4375 C 5.875 -6.101562 5.617188 -5.816406 5.296875 -5.578125 C 4.984375 -5.335938 4.625 -5.171875 4.21875 -5.078125 C 4.457031 -5.046875 4.71875 -4.988281 5 -4.90625 C 5.289062 -4.820312 5.5625 -4.691406 5.8125 -4.515625 C 6.070312 -4.335938 6.28125 -4.101562 6.4375 -3.8125 C 6.59375 -3.53125 6.671875 -3.164062 6.671875 -2.71875 C 6.671875 -2.1875 6.566406 -1.734375 6.359375 -1.359375 C 6.160156 -0.992188 5.890625 -0.703125 5.546875 -0.484375 C 5.210938 -0.265625 4.847656 -0.101562 4.453125 0 C 4.054688 0.09375 3.671875 0.140625 3.296875 0.140625 Z "/>
</g>
<g id="glyph-0-7">
<path d="M 0.5 0 L 0.5 -0.5625 L 0.6875 -0.5625 C 0.882812 -0.5625 1.066406 -0.582031 1.234375 -0.625 C 1.398438 -0.664062 1.53125 -0.753906 1.625 -0.890625 C 1.71875 -1.035156 1.765625 -1.242188 1.765625 -1.515625 L 1.765625 -8.046875 C 1.765625 -8.316406 1.710938 -8.515625 1.609375 -8.640625 C 1.515625 -8.773438 1.382812 -8.859375 1.21875 -8.890625 C 1.050781 -8.929688 0.875 -8.953125 0.6875 -8.953125 L 0.5 -8.953125 L 0.5 -9.515625 L 4.578125 -9.515625 C 5.492188 -9.515625 6.273438 -9.328125 6.921875 -8.953125 C 7.578125 -8.585938 8.078125 -8.050781 8.421875 -7.34375 C 8.765625 -6.644531 8.9375 -5.785156 8.9375 -4.765625 C 8.9375 -3.796875 8.769531 -2.953125 8.4375 -2.234375 C 8.113281 -1.523438 7.628906 -0.972656 6.984375 -0.578125 C 6.347656 -0.191406 5.546875 0 4.578125 0 Z M 4.28125 -0.6875 C 4.988281 -0.6875 5.578125 -0.84375 6.046875 -1.15625 C 6.515625 -1.46875 6.863281 -1.925781 7.09375 -2.53125 C 7.332031 -3.144531 7.453125 -3.890625 7.453125 -4.765625 C 7.453125 -5.648438 7.332031 -6.394531 7.09375 -7 C 6.863281 -7.601562 6.515625 -8.0625 6.046875 -8.375 C 5.578125 -8.6875 4.992188 -8.84375 4.296875 -8.84375 L 3.125 -8.84375 L 3.125 -0.6875 Z "/>
</g>
<g id="glyph-0-8">
<path d="M 3.203125 0.140625 C 2.523438 0.140625 2.03125 -0.0078125 1.71875 -0.3125 C 1.414062 -0.625 1.265625 -1.164062 1.265625 -1.9375 L 1.265625 -6.390625 L 0.25 -6.390625 L 0.25 -6.921875 C 0.414062 -6.921875 0.59375 -6.953125 0.78125 -7.015625 C 0.976562 -7.085938 1.148438 -7.195312 1.296875 -7.34375 C 1.441406 -7.5 1.5625 -7.691406 1.65625 -7.921875 C 1.757812 -8.160156 1.84375 -8.445312 1.90625 -8.78125 L 2.515625 -8.78125 L 2.515625 -7.140625 L 4.265625 -7.140625 L 4.265625 -6.390625 L 2.515625 -6.390625 L 2.515625 -1.890625 C 2.515625 -1.441406 2.609375 -1.109375 2.796875 -0.890625 C 2.984375 -0.679688 3.226562 -0.578125 3.53125 -0.578125 C 3.6875 -0.578125 3.832031 -0.582031 3.96875 -0.59375 C 4.101562 -0.613281 4.242188 -0.640625 4.390625 -0.671875 L 4.390625 -0.078125 C 4.273438 -0.0234375 4.097656 0.0195312 3.859375 0.0625 C 3.628906 0.113281 3.410156 0.140625 3.203125 0.140625 Z "/>
</g>
<g id="glyph-0-9">
<path d="M 3.828125 0.140625 C 2.859375 0.140625 2.097656 -0.175781 1.546875 -0.8125 C 1.003906 -1.457031 0.734375 -2.359375 0.734375 -3.515625 C 0.734375 -4.765625 0.988281 -5.703125 1.5 -6.328125 C 2.019531 -6.960938 2.75 -7.28125 3.6875 -7.28125 C 4.550781 -7.28125 5.226562 -7.007812 5.71875 -6.46875 C 6.21875 -5.9375 6.46875 -5.144531 6.46875 -4.09375 L 6.46875 -3.484375 L 2.03125 -3.484375 C 2.039062 -2.515625 2.210938 -1.804688 2.546875 -1.359375 C 2.878906 -0.921875 3.367188 -0.703125 4.015625 -0.703125 C 4.472656 -0.703125 4.863281 -0.796875 5.1875 -0.984375 C 5.507812 -1.179688 5.753906 -1.398438 5.921875 -1.640625 C 5.984375 -1.609375 6.039062 -1.550781 6.09375 -1.46875 C 6.144531 -1.394531 6.171875 -1.300781 6.171875 -1.1875 C 6.171875 -1.007812 6.085938 -0.816406 5.921875 -0.609375 C 5.753906 -0.410156 5.492188 -0.234375 5.140625 -0.078125 C 4.796875 0.0664062 4.359375 0.140625 3.828125 0.140625 Z M 5.125 -4.203125 C 5.125 -4.910156 5.015625 -5.476562 4.796875 -5.90625 C 4.578125 -6.34375 4.203125 -6.5625 3.671875 -6.5625 C 3.179688 -6.5625 2.800781 -6.359375 2.53125 -5.953125 C 2.257812 -5.546875 2.097656 -4.960938 2.046875 -4.203125 Z "/>
</g>
<g id="glyph-0-10">
<path d="M 0.0625 0 L 0.0625 -0.5625 L 0.1875 -0.5625 C 0.394531 -0.5625 0.570312 -0.582031 0.71875 -0.625 C 0.875 -0.675781 1.023438 -0.765625 1.171875 -0.890625 C 1.316406 -1.015625 1.472656 -1.1875 1.640625 -1.40625 L 3.3125 -3.578125 L 1.640625 -5.875 C 1.515625 -6.03125 1.382812 -6.160156 1.25 -6.265625 C 1.125 -6.367188 1 -6.445312 0.875 -6.5 C 0.75 -6.550781 0.625 -6.578125 0.5 -6.578125 L 0.3125 -6.578125 L 0.3125 -7.140625 L 3.703125 -7.140625 L 3.703125 -6.578125 L 3.671875 -6.578125 C 3.367188 -6.578125 3.164062 -6.539062 3.0625 -6.46875 C 2.957031 -6.394531 2.90625 -6.304688 2.90625 -6.203125 C 2.90625 -6.109375 2.929688 -6.015625 2.984375 -5.921875 C 3.035156 -5.835938 3.113281 -5.722656 3.21875 -5.578125 L 4.09375 -4.390625 L 4.78125 -5.390625 C 4.882812 -5.535156 4.96875 -5.675781 5.03125 -5.8125 C 5.09375 -5.957031 5.125 -6.085938 5.125 -6.203125 C 5.125 -6.359375 5.050781 -6.457031 4.90625 -6.5 C 4.769531 -6.550781 4.597656 -6.578125 4.390625 -6.578125 L 4.359375 -6.578125 L 4.359375 -7.140625 L 7.28125 -7.140625 L 7.28125 -6.578125 L 7.15625 -6.578125 C 6.988281 -6.578125 6.832031 -6.554688 6.6875 -6.515625 C 6.550781 -6.484375 6.414062 -6.40625 6.28125 -6.28125 C 6.144531 -6.15625 5.988281 -5.972656 5.8125 -5.734375 L 4.4375 -3.90625 L 6.390625 -1.265625 C 6.523438 -1.097656 6.648438 -0.957031 6.765625 -0.84375 C 6.890625 -0.738281 7.007812 -0.664062 7.125 -0.625 C 7.238281 -0.582031 7.351562 -0.5625 7.46875 -0.5625 L 7.640625 -0.5625 L 7.640625 0 L 4.203125 0 L 4.203125 -0.5625 L 4.265625 -0.5625 C 4.535156 -0.5625 4.734375 -0.597656 4.859375 -0.671875 C 4.992188 -0.742188 5.0625 -0.851562 5.0625 -1 C 5.0625 -1.09375 5.023438 -1.195312 4.953125 -1.3125 C 4.890625 -1.4375 4.757812 -1.640625 4.5625 -1.921875 L 3.671875 -3.125 L 2.734375 -1.8125 C 2.648438 -1.707031 2.566406 -1.578125 2.484375 -1.421875 C 2.410156 -1.265625 2.375 -1.113281 2.375 -0.96875 C 2.375 -0.832031 2.4375 -0.726562 2.5625 -0.65625 C 2.695312 -0.59375 2.910156 -0.5625 3.203125 -0.5625 L 3.234375 -0.5625 L 3.234375 0 Z "/>
</g>
</g>
</defs>
<g fill="rgb(100%, 100%, 100%)" fill-opacity="1">
<use xlink:href="#glyph-0-0" x="30" y="34.25293"/>
<use xlink:href="#glyph-0-1" x="38" y="34.25293"/>
<use xlink:href="#glyph-0-2" x="46" y="34.25293"/>
<use xlink:href="#glyph-0-3" x="50" y="34.25293"/>
<use xlink:href="#glyph-0-4" x="56" y="34.25293"/>
<use xlink:href="#glyph-0-2" x="59" y="34.25293"/>
<use xlink:href="#glyph-0-3" x="63" y="34.25293"/>
<use xlink:href="#glyph-0-4" x="69" y="34.25293"/>
<use xlink:href="#glyph-0-5" x="72" y="34.25293"/>
<use xlink:href="#glyph-0-4" x="80" y="34.25293"/>
<use xlink:href="#glyph-0-6" x="83" y="34.25293"/>
<use xlink:href="#glyph-0-7" x="90" y="34.25293"/>
<use xlink:href="#glyph-0-4" x="100" y="34.25293"/>
<use xlink:href="#glyph-0-8" x="103" y="34.25293"/>
<use xlink:href="#glyph-0-9" x="108" y="34.25293"/>
<use xlink:href="#glyph-0-10" x="115" y="34.25293"/>
<use xlink:href="#glyph-0-8" x="123" y="34.25293"/>
</g>
</svg>
