<?xml version="1.0" encoding="UTF-8"?>
<svg xmlns="http://www.w3.org/2000/svg" xmlns:xlink="http://www.w3.org/1999/xlink" width="1920" height="1080" viewBox="0 0 1920 1080">
<defs>
<g>
<g id="glyph-0-0">
<path d="M 4.84375 -1.9375 C 4.84375 -1.3125 4.65625 -0.816406 4.28125 -0.453125 C 3.914062 -0.0859375 3.414062 0.09375 2.78125 0.09375 C 2.070312 0.09375 1.519531 -0.171875 1.125 -0.703125 C 0.738281 -1.234375 0.546875 -1.972656 0.546875 -2.921875 C 0.546875 -3.941406 0.738281 -4.703125 1.125 -5.203125 C 1.519531 -5.703125 2.082031 -5.953125 2.8125 -5.953125 C 3.332031 -5.953125 3.738281 -5.835938 4.03125 -5.609375 C 4.332031 -5.378906 4.546875 -5.023438 4.671875 -4.546875 L 3.53125 -4.375 C 3.414062 -4.78125 3.164062 -4.984375 2.78125 -4.984375 C 2.457031 -4.984375 2.203125 -4.828125 2.015625 -4.515625 C 1.828125 -4.203125 1.734375 -3.742188 1.734375 -3.140625 C 1.867188 -3.347656 2.050781 -3.507812 2.28125 -3.625 C 2.507812 -3.75 2.769531 -3.8125 3.0625 -3.8125 C 3.601562 -3.8125 4.035156 -3.640625 4.359375 -3.296875 C 4.679688 -2.960938 4.84375 -2.507812 4.84375 -1.9375 Z M 3.609375 -1.90625 C 3.609375 -2.21875 3.53125 -2.460938 3.375 -2.640625 C 3.21875 -2.816406 3 -2.90625 2.71875 -2.90625 C 2.457031 -2.90625 2.242188 -2.820312 2.078125 -2.65625 C 1.910156 -2.5 1.828125 -2.289062 1.828125 -2.03125 C 1.828125 -1.707031 1.910156 -1.429688 2.078125 -1.203125 C 2.242188 -0.972656 2.46875 -0.859375 2.75 -0.859375 C 3.007812 -0.859375 3.21875 -0.953125 3.375 -1.140625 C 3.53125 -1.328125 3.609375 -1.582031 3.609375 -1.90625 Z "/>
</g>
<g id="glyph-0-1">
<path d="M 4.828125 -2.9375 C 4.828125 -1.945312 4.640625 -1.191406 4.265625 -0.671875 C 3.898438 -0.160156 3.363281 0.09375 2.65625 0.09375 C 1.945312 0.09375 1.410156 -0.160156 1.046875 -0.671875 C 0.691406 -1.191406 0.515625 -1.945312 0.515625 -2.9375 C 0.515625 -3.945312 0.6875 -4.703125 1.03125 -5.203125 C 1.382812 -5.703125 1.9375 -5.953125 2.6875 -5.953125 C 3.40625 -5.953125 3.941406 -5.695312 4.296875 -5.1875 C 4.648438 -4.6875 4.828125 -3.9375 4.828125 -2.9375 Z M 3.59375 -2.9375 C 3.59375 -3.4375 3.5625 -3.832031 3.5 -4.125 C 3.445312 -4.425781 3.351562 -4.644531 3.21875 -4.78125 C 3.09375 -4.925781 2.910156 -5 2.671875 -5 C 2.429688 -5 2.242188 -4.925781 2.109375 -4.78125 C 1.972656 -4.644531 1.875 -4.425781 1.8125 -4.125 C 1.757812 -3.832031 1.734375 -3.4375 1.734375 -2.9375 C 1.734375 -2.425781 1.765625 -2.019531 1.828125 -1.71875 C 1.890625 -1.425781 1.984375 -1.210938 2.109375 -1.078125 C 2.242188 -0.941406 2.425781 -0.875 2.65625 -0.875 C 3 -0.875 3.238281 -1.03125 3.375 -1.34375 C 3.519531 -1.65625 3.59375 -2.1875 3.59375 -2.9375 Z M 2.203125 -2.40625 L 2.203125 -3.484375 L 3.125 -3.484375 L 3.125 -2.40625 Z "/>
</g>
<g id="glyph-0-2">
</g>
<g id="glyph-0-3">
<path d="M 3.75 0 L 2.5 -2.125 L 1.96875 -1.765625 L 1.96875 0 L 0.75 0 L 0.75 -6.4375 L 1.96875 -6.4375 L 1.96875 -2.75 L 3.640625 -4.703125 L 4.953125 -4.703125 L 3.3125 -2.859375 L 5.078125 0 Z "/>
</g>
<g id="glyph-0-4">
<path d="M 2.671875 1.890625 C 2.128906 1.890625 1.6875 1.773438 1.34375 1.546875 C 1.007812 1.328125 0.804688 1.019531 0.734375 0.625 L 1.953125 0.484375 C 1.992188 0.671875 2.082031 0.816406 2.21875 0.921875 C 2.351562 1.035156 2.515625 1.09375 2.703125 1.09375 C 2.992188 1.09375 3.210938 0.984375 3.359375 0.765625 C 3.515625 0.554688 3.59375 0.25 3.59375 -0.15625 L 3.59375 -0.421875 L 3.609375 -0.921875 L 3.59375 -0.921875 C 3.320312 -0.335938 2.847656 -0.046875 2.171875 -0.046875 C 1.648438 -0.046875 1.242188 -0.25 0.953125 -0.65625 C 0.671875 -1.0625 0.53125 -1.640625 0.53125 -2.390625 C 0.53125 -3.148438 0.679688 -3.734375 0.984375 -4.140625 C 1.285156 -4.554688 1.710938 -4.765625 2.265625 -4.765625 C 2.566406 -4.765625 2.832031 -4.691406 3.0625 -4.546875 C 3.289062 -4.410156 3.46875 -4.207031 3.59375 -3.9375 L 3.625 -3.9375 C 3.625 -4.039062 3.628906 -4.175781 3.640625 -4.34375 C 3.648438 -4.519531 3.664062 -4.640625 3.6875 -4.703125 L 4.84375 -4.703125 C 4.820312 -4.390625 4.8125 -4.023438 4.8125 -3.609375 L 4.8125 -0.140625 C 4.8125 0.515625 4.625 1.015625 4.25 1.359375 C 3.882812 1.710938 3.359375 1.890625 2.671875 1.890625 Z M 3.609375 -2.40625 C 3.609375 -2.882812 3.523438 -3.257812 3.359375 -3.53125 C 3.203125 -3.800781 2.984375 -3.9375 2.703125 -3.9375 C 2.410156 -3.9375 2.1875 -3.800781 2.03125 -3.53125 C 1.882812 -3.269531 1.8125 -2.890625 1.8125 -2.390625 C 1.8125 -1.878906 1.890625 -1.503906 2.046875 -1.265625 C 2.203125 -1.023438 2.414062 -0.90625 2.6875 -0.90625 C 2.988281 -0.90625 3.21875 -1.039062 3.375 -1.3125 C 3.53125 -1.582031 3.609375 -1.945312 3.609375 -2.40625 Z "/>
</g>
</g>
</defs>
<g fill="rgb(100%, 41.960784%, 41.960784%)" fill-opacity="1">
<use xlink:href="#glyph-0-0" x="30" y="27.400391"/>
<use xlink:href="#glyph-0-1" x="35" y="27.400391"/>
<use xlink:href="#glyph-0-2" x="40" y="27.400391"/>
<use xlink:href="#glyph-0-3" x="45" y="27.400391"/>
<use xlink:href="#glyph-0-4" x="50" y="27.400391"/>
</g>
</svg>
