<?xml version="1.0" encoding="UTF-8"?>
<svg xmlns="http://www.w3.org/2000/svg" xmlns:xlink="http://www.w3.org/1999/xlink" width="1920" height="1080" viewBox="0 0 1920 1080">
<defs>
<g>
<g id="glyph-0-0">
<path d="M 1.71875 -0.5625 C 1.71875 -0.40625 1.65625 -0.28125 1.53125 -0.1875 C 1.414062 -0.09375 1.25 -0.0390625 1.03125 -0.03125 L 1.03125 0.203125 L 0.828125 0.203125 L 0.828125 -0.03125 C 0.410156 -0.0390625 0.164062 -0.21875 0.09375 -0.5625 L 0.359375 -0.625 C 0.378906 -0.5 0.425781 -0.40625 0.5 -0.34375 C 0.582031 -0.28125 0.691406 -0.242188 0.828125 -0.234375 L 0.828125 -0.96875 L 0.796875 -0.984375 C 0.617188 -1.023438 0.488281 -1.066406 0.40625 -1.109375 C 0.332031 -1.160156 0.273438 -1.21875 0.234375 -1.28125 C 0.203125 -1.351562 0.1875 -1.4375 0.1875 -1.53125 C 0.1875 -1.675781 0.238281 -1.789062 0.34375 -1.875 C 0.457031 -1.957031 0.617188 -2.003906 0.828125 -2.015625 L 0.828125 -2.203125 L 1.03125 -2.203125 L 1.03125 -2.015625 C 1.207031 -2.003906 1.347656 -1.960938 1.453125 -1.890625 C 1.554688 -1.816406 1.628906 -1.695312 1.671875 -1.53125 L 1.40625 -1.484375 C 1.382812 -1.585938 1.34375 -1.664062 1.28125 -1.71875 C 1.21875 -1.769531 1.132812 -1.800781 1.03125 -1.8125 L 1.03125 -1.171875 C 1.195312 -1.128906 1.316406 -1.085938 1.390625 -1.046875 C 1.472656 -1.015625 1.535156 -0.976562 1.578125 -0.9375 C 1.628906 -0.894531 1.664062 -0.84375 1.6875 -0.78125 C 1.707031 -0.71875 1.71875 -0.644531 1.71875 -0.5625 Z M 0.453125 -1.515625 C 0.453125 -1.460938 0.460938 -1.414062 0.484375 -1.375 C 0.503906 -1.34375 0.535156 -1.3125 0.578125 -1.28125 C 0.628906 -1.257812 0.710938 -1.234375 0.828125 -1.203125 L 0.828125 -1.8125 C 0.703125 -1.8125 0.609375 -1.785156 0.546875 -1.734375 C 0.484375 -1.679688 0.453125 -1.609375 0.453125 -1.515625 Z M 1.46875 -0.578125 C 1.46875 -0.640625 1.453125 -0.691406 1.421875 -0.734375 C 1.390625 -0.773438 1.347656 -0.8125 1.296875 -0.84375 C 1.253906 -0.875 1.164062 -0.90625 1.03125 -0.9375 L 1.03125 -0.234375 C 1.164062 -0.242188 1.269531 -0.273438 1.34375 -0.328125 C 1.425781 -0.390625 1.46875 -0.472656 1.46875 -0.578125 Z "/>
</g>
<g id="glyph-0-1">
<path d="M 0.21875 0 L 0.21875 -0.171875 C 0.257812 -0.285156 0.332031 -0.394531 0.4375 -0.5 C 0.539062 -0.613281 0.679688 -0.738281 0.859375 -0.875 C 1.023438 -1.007812 1.140625 -1.125 1.203125 -1.21875 C 1.273438 -1.3125 1.3125 -1.398438 1.3125 -1.484375 C 1.3125 -1.585938 1.273438 -1.671875 1.203125 -1.734375 C 1.140625 -1.796875 1.039062 -1.828125 0.90625 -1.828125 C 0.800781 -1.828125 0.710938 -1.796875 0.640625 -1.734375 C 0.566406 -1.671875 0.523438 -1.582031 0.515625 -1.46875 L 0.234375 -1.5 C 0.253906 -1.664062 0.320312 -1.796875 0.4375 -1.890625 C 0.5625 -1.992188 0.71875 -2.046875 0.90625 -2.046875 C 1.125 -2.046875 1.289062 -2 1.40625 -1.90625 C 1.53125 -1.8125 1.59375 -1.675781 1.59375 -1.5 C 1.59375 -1.382812 1.550781 -1.269531 1.46875 -1.15625 C 1.394531 -1.039062 1.285156 -0.921875 1.140625 -0.796875 C 0.929688 -0.640625 0.785156 -0.519531 0.703125 -0.4375 C 0.628906 -0.363281 0.578125 -0.289062 0.546875 -0.21875 L 1.625 -0.21875 L 1.625 0 Z "/>
</g>
<g id="glyph-0-2">
<path d="M 1.65625 -1.015625 C 1.65625 -0.671875 1.59375 -0.410156 1.46875 -0.234375 C 1.34375 -0.0546875 1.15625 0.03125 0.90625 0.03125 C 0.664062 0.03125 0.484375 -0.0546875 0.359375 -0.234375 C 0.242188 -0.410156 0.1875 -0.671875 0.1875 -1.015625 C 0.1875 -1.359375 0.242188 -1.613281 0.359375 -1.78125 C 0.484375 -1.957031 0.671875 -2.046875 0.921875 -2.046875 C 1.171875 -2.046875 1.351562 -1.957031 1.46875 -1.78125 C 1.59375 -1.613281 1.65625 -1.359375 1.65625 -1.015625 Z M 1.375 -1.015625 C 1.375 -1.296875 1.335938 -1.5 1.265625 -1.625 C 1.203125 -1.757812 1.085938 -1.828125 0.921875 -1.828125 C 0.753906 -1.828125 0.632812 -1.765625 0.5625 -1.640625 C 0.488281 -1.515625 0.453125 -1.304688 0.453125 -1.015625 C 0.453125 -0.722656 0.488281 -0.507812 0.5625 -0.375 C 0.632812 -0.25 0.753906 -0.1875 0.921875 -0.1875 C 1.078125 -0.1875 1.191406 -0.253906 1.265625 -0.390625 C 1.335938 -0.523438 1.375 -0.734375 1.375 -1.015625 Z M 0.734375 -0.828125 L 0.734375 -1.203125 L 1.09375 -1.203125 L 1.09375 -0.828125 Z "/>
</g>
</g>
</defs>
<g fill="rgb(22.745098%, 22.745098%, 35.294118%)" fill-opacity="1">
<use xlink:href="#glyph-0-0" x="30" y="22.543945"/>
<use xlink:href="#glyph-0-1" x="32" y="22.543945"/>
<use xlink:href="#glyph-0-2" x="34" y="22.543945"/>
</g>
</svg>
