<?xml version="1.0" encoding="UTF-8"?>
<svg xmlns="http://www.w3.org/2000/svg" xmlns:xlink="http://www.w3.org/1999/xlink" width="1920" height="1080" viewBox="0 0 1920 1080">
<defs>
<g>
<g id="glyph-0-0">
<path d="M 0.625 -1.9375 L 0.625 -1.140625 L 1.71875 -1.140625 L 1.71875 -0.875 L 0.625 -0.875 L 0.625 0 L 0.3125 0 L 0.3125 -2.1875 L 1.765625 -2.1875 L 1.765625 -1.9375 Z "/>
</g>
<g id="glyph-0-1">
<path d="M 1.203125 -0.234375 L 1.828125 -0.234375 L 1.828125 0 L 0.234375 0 L 0.234375 -0.234375 L 0.921875 -0.234375 L 0.921875 -1.53125 L 0.40625 -1.53125 L 0.40625 -1.765625 L 1.203125 -1.765625 Z M 0.890625 -2.09375 L 0.890625 -2.40625 L 1.203125 -2.40625 L 1.203125 -2.09375 Z "/>
</g>
<g id="glyph-0-2">
<path d="M 0.234375 0 L 0.234375 -0.21875 L 1.34375 -1.53125 L 0.296875 -1.53125 L 0.296875 -1.765625 L 1.671875 -1.765625 L 1.671875 -1.53125 L 0.5625 -0.21875 L 1.734375 -0.21875 L 1.734375 0 Z "/>
</g>
<g id="glyph-0-3">
<path d="M 1.484375 0 L 0.890625 -0.8125 L 0.671875 -0.65625 L 0.671875 0 L 0.390625 0 L 0.390625 -2.40625 L 0.671875 -2.40625 L 0.671875 -0.90625 L 1.453125 -1.765625 L 1.796875 -1.765625 L 1.078125 -1 L 1.828125 0 Z "/>
</g>
<g id="glyph-0-4">
<path d="M 1.71875 -0.5 C 1.71875 -0.332031 1.65625 -0.203125 1.53125 -0.109375 C 1.40625 -0.015625 1.234375 0.03125 1.015625 0.03125 C 0.785156 0.03125 0.613281 0 0.5 -0.0625 C 0.382812 -0.132812 0.304688 -0.25 0.265625 -0.40625 L 0.53125 -0.453125 C 0.550781 -0.359375 0.59375 -0.289062 0.65625 -0.25 C 0.726562 -0.207031 0.847656 -0.1875 1.015625 -0.1875 C 1.304688 -0.1875 1.453125 -0.28125 1.453125 -0.46875 C 1.453125 -0.53125 1.421875 -0.582031 1.359375 -0.625 C 1.304688 -0.675781 1.226562 -0.710938 1.125 -0.734375 C 0.84375 -0.804688 0.660156 -0.863281 0.578125 -0.90625 C 0.503906 -0.945312 0.445312 -0.992188 0.40625 -1.046875 C 0.363281 -1.109375 0.34375 -1.1875 0.34375 -1.28125 C 0.34375 -1.4375 0.398438 -1.554688 0.515625 -1.640625 C 0.628906 -1.734375 0.796875 -1.78125 1.015625 -1.78125 C 1.203125 -1.78125 1.351562 -1.742188 1.46875 -1.671875 C 1.582031 -1.597656 1.65625 -1.492188 1.6875 -1.359375 L 1.421875 -1.328125 C 1.410156 -1.410156 1.367188 -1.46875 1.296875 -1.5 C 1.234375 -1.539062 1.140625 -1.5625 1.015625 -1.5625 C 0.742188 -1.5625 0.609375 -1.484375 0.609375 -1.328125 C 0.609375 -1.253906 0.628906 -1.195312 0.671875 -1.15625 C 0.722656 -1.125 0.800781 -1.097656 0.90625 -1.078125 L 1.09375 -1.015625 C 1.269531 -0.972656 1.394531 -0.929688 1.46875 -0.890625 C 1.550781 -0.847656 1.613281 -0.796875 1.65625 -0.734375 C 1.695312 -0.671875 1.71875 -0.59375 1.71875 -0.5 Z "/>
</g>
<g id="glyph-0-5">
<path d="M 0.515625 -0.8125 C 0.515625 -0.613281 0.554688 -0.457031 0.640625 -0.34375 C 0.734375 -0.238281 0.859375 -0.1875 1.015625 -0.1875 C 1.128906 -0.1875 1.226562 -0.207031 1.3125 -0.25 C 1.394531 -0.300781 1.445312 -0.367188 1.46875 -0.453125 L 1.734375 -0.390625 C 1.679688 -0.253906 1.59375 -0.148438 1.46875 -0.078125 C 1.34375 -0.00390625 1.191406 0.03125 1.015625 0.03125 C 0.753906 0.03125 0.554688 -0.046875 0.421875 -0.203125 C 0.285156 -0.359375 0.21875 -0.585938 0.21875 -0.890625 C 0.21875 -1.179688 0.285156 -1.40625 0.421875 -1.5625 C 0.554688 -1.71875 0.75 -1.796875 1 -1.796875 C 1.257812 -1.796875 1.453125 -1.71875 1.578125 -1.5625 C 1.710938 -1.40625 1.78125 -1.171875 1.78125 -0.859375 L 1.78125 -0.8125 Z M 1 -1.578125 C 0.851562 -1.578125 0.738281 -1.53125 0.65625 -1.4375 C 0.570312 -1.34375 0.53125 -1.210938 0.53125 -1.046875 L 1.46875 -1.046875 C 1.445312 -1.398438 1.289062 -1.578125 1 -1.578125 Z "/>
</g>
<g id="glyph-0-6">
<path d="M 1.359375 -0.234375 L 1.8125 -0.234375 L 1.8125 0 L 1.21875 0 C 1.09375 -0.0195312 1 -0.0703125 0.9375 -0.15625 C 0.914062 -0.1875 0.90625 -0.273438 0.90625 -0.421875 L 0.90625 -2.1875 L 0.4375 -2.1875 L 0.4375 -2.40625 L 1.203125 -2.40625 L 1.203125 -0.390625 C 1.203125 -0.335938 1.210938 -0.300781 1.234375 -0.28125 C 1.253906 -0.257812 1.296875 -0.242188 1.359375 -0.234375 Z M 1.359375 -0.234375 Z M 1.203125 -0.390625 Z M 1.21875 0 Z M 0.90625 -0.234375 L 0.90625 -0.421875 Z "/>
</g>
<g id="glyph-0-7">
</g>
<g id="glyph-0-8">
<path d="M 0.859375 0 L 0.859375 -1.109375 C 0.859375 -1.273438 0.84375 -1.390625 0.8125 -1.453125 C 0.789062 -1.523438 0.742188 -1.5625 0.671875 -1.5625 C 0.609375 -1.5625 0.550781 -1.507812 0.5 -1.40625 C 0.457031 -1.300781 0.4375 -1.160156 0.4375 -0.984375 L 0.4375 0 L 0.171875 0 L 0.171875 -1.390625 C 0.171875 -1.585938 0.164062 -1.710938 0.15625 -1.765625 L 0.40625 -1.765625 L 0.40625 -1.46875 L 0.421875 -1.46875 C 0.453125 -1.582031 0.492188 -1.664062 0.546875 -1.71875 C 0.609375 -1.769531 0.679688 -1.796875 0.765625 -1.796875 C 0.859375 -1.796875 0.925781 -1.769531 0.96875 -1.71875 C 1.019531 -1.664062 1.054688 -1.582031 1.078125 -1.46875 C 1.128906 -1.582031 1.179688 -1.664062 1.234375 -1.71875 C 1.296875 -1.769531 1.375 -1.796875 1.46875 -1.796875 C 1.59375 -1.796875 1.679688 -1.75 1.734375 -1.65625 C 1.796875 -1.5625 1.828125 -1.398438 1.828125 -1.171875 L 1.828125 0 L 1.546875 0 L 1.546875 -1.109375 C 1.546875 -1.273438 1.53125 -1.390625 1.5 -1.453125 C 1.476562 -1.523438 1.4375 -1.5625 1.375 -1.5625 C 1.300781 -1.5625 1.242188 -1.515625 1.203125 -1.421875 C 1.160156 -1.335938 1.140625 -1.203125 1.140625 -1.015625 L 1.140625 0 Z "/>
</g>
</g>
</defs>
<g fill="rgb(22.745098%, 22.745098%, 35.294118%)" fill-opacity="1">
<use xlink:href="#glyph-0-0" x="30" y="22.774414"/>
<use xlink:href="#glyph-0-1" x="32" y="22.774414"/>
<use xlink:href="#glyph-0-2" x="34" y="22.774414"/>
<use xlink:href="#glyph-0-1" x="36" y="22.774414"/>
<use xlink:href="#glyph-0-3" x="38" y="22.774414"/>
<use xlink:href="#glyph-0-4" x="40" y="22.774414"/>
<use xlink:href="#glyph-0-5" x="42" y="22.774414"/>
<use xlink:href="#glyph-0-6" x="44" y="22.774414"/>
<use xlink:href="#glyph-0-7" x="46" y="22.774414"/>
<use xlink:href="#glyph-0-3" x="48" y="22.774414"/>
<use xlink:href="#glyph-0-5" x="50" y="22.774414"/>
<use xlink:href="#glyph-0-4" x="52" y="22.774414"/>
<use xlink:href="#glyph-0-1" x="54" y="22.774414"/>
<use xlink:href="#glyph-0-8" x="56" y="22.774414"/>
</g>
</svg>
