<?xml version="1.0" encoding="UTF-8"?>
<svg xmlns="http://www.w3.org/2000/svg" xmlns:xlink="http://www.w3.org/1999/xlink" width="1920" height="1080" viewBox="0 0 1920 1080">
<defs>
<g>
<g id="glyph-0-0">
<path d="M 2.5 -0.84375 C 2.5 -0.582031 2.410156 -0.378906 2.234375 -0.234375 C 2.054688 -0.0976562 1.796875 -0.0234375 1.453125 -0.015625 L 1.453125 0.375 L 1.21875 0.375 L 1.21875 0 C 0.90625 -0.0078125 0.660156 -0.0820312 0.484375 -0.21875 C 0.316406 -0.351562 0.207031 -0.5625 0.15625 -0.84375 L 0.703125 -0.9375 C 0.734375 -0.78125 0.785156 -0.660156 0.859375 -0.578125 C 0.941406 -0.503906 1.0625 -0.460938 1.21875 -0.453125 L 1.21875 -1.296875 C 1.21875 -1.296875 1.207031 -1.296875 1.1875 -1.296875 C 1.164062 -1.304688 1.15625 -1.3125 1.15625 -1.3125 C 0.914062 -1.363281 0.738281 -1.425781 0.625 -1.5 C 0.507812 -1.570312 0.414062 -1.664062 0.34375 -1.78125 C 0.28125 -1.894531 0.25 -2.03125 0.25 -2.1875 C 0.25 -2.425781 0.332031 -2.609375 0.5 -2.734375 C 0.664062 -2.867188 0.90625 -2.945312 1.21875 -2.96875 L 1.21875 -3.25 L 1.453125 -3.25 L 1.453125 -2.96875 C 1.734375 -2.957031 1.945312 -2.894531 2.09375 -2.78125 C 2.25 -2.664062 2.363281 -2.472656 2.4375 -2.203125 L 1.859375 -2.125 C 1.816406 -2.363281 1.679688 -2.5 1.453125 -2.53125 L 1.453125 -1.78125 L 1.484375 -1.765625 C 1.523438 -1.765625 1.648438 -1.726562 1.859375 -1.65625 C 2.078125 -1.59375 2.238281 -1.492188 2.34375 -1.359375 C 2.445312 -1.222656 2.5 -1.050781 2.5 -0.84375 Z M 1.21875 -2.546875 C 0.957031 -2.523438 0.828125 -2.410156 0.828125 -2.203125 C 0.828125 -2.140625 0.835938 -2.085938 0.859375 -2.046875 C 0.878906 -2.003906 0.910156 -1.96875 0.953125 -1.9375 C 0.992188 -1.90625 1.082031 -1.867188 1.21875 -1.828125 Z M 1.9375 -0.84375 C 1.9375 -0.914062 1.921875 -0.972656 1.890625 -1.015625 C 1.867188 -1.066406 1.832031 -1.101562 1.78125 -1.125 C 1.726562 -1.15625 1.617188 -1.195312 1.453125 -1.25 L 1.453125 -0.453125 C 1.773438 -0.472656 1.9375 -0.601562 1.9375 -0.84375 Z "/>
</g>
<g id="glyph-0-1">
<path d="M 0.328125 0 L 0.328125 -0.453125 L 1.171875 -0.453125 L 1.171875 -2.390625 C 1.109375 -2.265625 0.992188 -2.160156 0.828125 -2.078125 C 0.660156 -2.003906 0.484375 -1.96875 0.296875 -1.96875 L 0.296875 -2.421875 C 0.492188 -2.421875 0.671875 -2.460938 0.828125 -2.546875 C 0.992188 -2.640625 1.117188 -2.765625 1.203125 -2.921875 L 1.78125 -2.921875 L 1.78125 -0.453125 L 2.46875 -0.453125 L 2.46875 0 Z "/>
</g>
<g id="glyph-0-2">
<path d="M 2.421875 -0.828125 C 2.421875 -0.554688 2.320312 -0.34375 2.125 -0.1875 C 1.9375 -0.03125 1.671875 0.046875 1.328125 0.046875 C 0.984375 0.046875 0.710938 -0.03125 0.515625 -0.1875 C 0.328125 -0.34375 0.234375 -0.554688 0.234375 -0.828125 C 0.234375 -1.003906 0.289062 -1.15625 0.40625 -1.28125 C 0.519531 -1.414062 0.671875 -1.5 0.859375 -1.53125 L 0.859375 -1.546875 C 0.691406 -1.578125 0.554688 -1.648438 0.453125 -1.765625 C 0.359375 -1.890625 0.3125 -2.03125 0.3125 -2.1875 C 0.3125 -2.425781 0.398438 -2.613281 0.578125 -2.75 C 0.753906 -2.894531 1.003906 -2.96875 1.328125 -2.96875 C 1.648438 -2.96875 1.898438 -2.898438 2.078125 -2.765625 C 2.253906 -2.628906 2.34375 -2.4375 2.34375 -2.1875 C 2.34375 -2.03125 2.289062 -1.890625 2.1875 -1.765625 C 2.09375 -1.648438 1.960938 -1.578125 1.796875 -1.546875 L 1.796875 -1.53125 C 1.992188 -1.5 2.144531 -1.421875 2.25 -1.296875 C 2.363281 -1.171875 2.421875 -1.015625 2.421875 -0.828125 Z M 1.71875 -2.15625 C 1.71875 -2.414062 1.585938 -2.546875 1.328125 -2.546875 C 1.054688 -2.546875 0.921875 -2.414062 0.921875 -2.15625 C 0.921875 -2.019531 0.957031 -1.914062 1.03125 -1.84375 C 1.101562 -1.78125 1.203125 -1.75 1.328125 -1.75 C 1.585938 -1.75 1.71875 -1.882812 1.71875 -2.15625 Z M 1.796875 -0.875 C 1.796875 -1.019531 1.753906 -1.128906 1.671875 -1.203125 C 1.597656 -1.285156 1.476562 -1.328125 1.3125 -1.328125 C 1.164062 -1.328125 1.050781 -1.285156 0.96875 -1.203125 C 0.894531 -1.117188 0.859375 -1.007812 0.859375 -0.875 C 0.859375 -0.550781 1.019531 -0.390625 1.34375 -0.390625 C 1.488281 -0.390625 1.597656 -0.425781 1.671875 -0.5 C 1.753906 -0.582031 1.796875 -0.707031 1.796875 -0.875 Z "/>
</g>
</g>
</defs>
<g fill="rgb(30.980392%, 76.470588%, 96.862745%)" fill-opacity="1">
<use xlink:href="#glyph-0-0" x="30" y="23.700195"/>
<use xlink:href="#glyph-0-1" x="33" y="23.700195"/>
<use xlink:href="#glyph-0-2" x="36" y="23.700195"/>
</g>
</svg>
