<?xml version="1.0" encoding="UTF-8"?>
<svg xmlns="http://www.w3.org/2000/svg" xmlns:xlink="http://www.w3.org/1999/xlink" width="1920" height="1080" viewBox="0 0 1920 1080">
<defs>
<g>
<g id="glyph-0-0">
<path d="M 0.265625 0 L 0.265625 -2.5625 L 2.09375 -2.5625 L 2.09375 -2.125 L 0.828125 -2.125 L 0.828125 -1.515625 L 1.984375 -1.515625 L 1.984375 -1.078125 L 0.828125 -1.078125 L 0.828125 -0.4375 L 2.171875 -0.4375 L 2.171875 0 Z "/>
</g>
<g id="glyph-0-1">
<path d="M 2.1875 -1.296875 C 2.1875 -0.878906 2.085938 -0.554688 1.890625 -0.328125 C 1.691406 -0.109375 1.414062 0 1.0625 0 L 0.25 0 L 0.25 -2.5625 L 0.9375 -2.5625 C 1.351562 -2.5625 1.664062 -2.457031 1.875 -2.25 C 2.082031 -2.039062 2.1875 -1.722656 2.1875 -1.296875 Z M 1.625 -1.296875 C 1.625 -1.585938 1.566406 -1.796875 1.453125 -1.921875 C 1.347656 -2.054688 1.175781 -2.125 0.9375 -2.125 L 0.8125 -2.125 L 0.8125 -0.4375 L 1.015625 -0.4375 C 1.421875 -0.4375 1.625 -0.722656 1.625 -1.296875 Z "/>
</g>
<g id="glyph-0-2">
<path d="M 0.40625 0 L 0.40625 -2.5625 L 0.96875 -2.5625 L 0.96875 -0.4375 L 2.125 -0.4375 L 2.125 0 Z "/>
</g>
<g id="glyph-0-3">
</g>
<g id="glyph-0-4">
<path d="M -0.015625 -0.796875 L -0.015625 -1.1875 L 2.359375 -1.1875 L 2.359375 -0.796875 Z "/>
</g>
<g id="glyph-0-5">
<path d="M 1.671875 0 L 1.0625 -1.0625 L 0.8125 -0.78125 L 0.8125 0 L 0.265625 0 L 0.265625 -2.5625 L 0.8125 -2.5625 L 0.8125 -1.421875 L 1.640625 -2.5625 L 2.296875 -2.5625 L 1.421875 -1.46875 L 2.328125 0 Z "/>
</g>
<g id="glyph-0-6">
<path d="M 0.796875 -2.0625 L 0.796875 -0.90625 C 0.796875 -0.726562 0.820312 -0.59375 0.875 -0.5 C 0.925781 -0.40625 1.003906 -0.359375 1.109375 -0.359375 C 1.222656 -0.359375 1.316406 -0.414062 1.390625 -0.53125 C 1.472656 -0.644531 1.515625 -0.785156 1.515625 -0.953125 L 1.515625 -2.0625 L 2.046875 -2.0625 L 2.046875 -0.453125 C 2.046875 -0.285156 2.050781 -0.132812 2.0625 0 L 1.546875 0 C 1.535156 -0.1875 1.53125 -0.320312 1.53125 -0.40625 L 1.515625 -0.40625 C 1.378906 -0.113281 1.171875 0.03125 0.890625 0.03125 C 0.679688 0.03125 0.519531 -0.03125 0.40625 -0.15625 C 0.300781 -0.289062 0.25 -0.488281 0.25 -0.75 L 0.25 -2.0625 Z "/>
</g>
<g id="glyph-0-7">
<path d="M 2.046875 -1.609375 C 1.910156 -1.628906 1.78125 -1.640625 1.65625 -1.640625 C 1.457031 -1.640625 1.296875 -1.566406 1.171875 -1.421875 C 1.054688 -1.273438 1 -1.078125 1 -0.828125 L 1 0 L 0.46875 0 L 0.46875 -1.328125 C 0.46875 -1.421875 0.457031 -1.535156 0.4375 -1.671875 C 0.425781 -1.804688 0.40625 -1.9375 0.375 -2.0625 L 0.890625 -2.0625 C 0.929688 -1.894531 0.960938 -1.75 0.984375 -1.625 C 1.046875 -1.789062 1.128906 -1.910156 1.234375 -1.984375 C 1.347656 -2.054688 1.488281 -2.09375 1.65625 -2.09375 C 1.789062 -2.09375 1.921875 -2.082031 2.046875 -2.0625 Z "/>
</g>
<g id="glyph-0-8">
<path d="M 1.171875 0.828125 C 0.929688 0.828125 0.738281 0.773438 0.59375 0.671875 C 0.445312 0.578125 0.359375 0.441406 0.328125 0.265625 L 0.859375 0.203125 C 0.878906 0.285156 0.914062 0.351562 0.96875 0.40625 C 1.03125 0.457031 1.101562 0.484375 1.1875 0.484375 C 1.3125 0.484375 1.40625 0.4375 1.46875 0.34375 C 1.539062 0.25 1.578125 0.113281 1.578125 -0.0625 L 1.578125 -0.40625 C 1.453125 -0.144531 1.242188 -0.015625 0.953125 -0.015625 C 0.722656 -0.015625 0.546875 -0.101562 0.421875 -0.28125 C 0.296875 -0.457031 0.234375 -0.710938 0.234375 -1.046875 C 0.234375 -1.378906 0.296875 -1.632812 0.421875 -1.8125 C 0.554688 -2 0.742188 -2.09375 0.984375 -2.09375 C 1.117188 -2.09375 1.234375 -2.0625 1.328125 -2 C 1.429688 -1.9375 1.515625 -1.84375 1.578125 -1.71875 C 1.578125 -1.769531 1.578125 -1.832031 1.578125 -1.90625 C 1.585938 -1.976562 1.597656 -2.03125 1.609375 -2.0625 L 2.109375 -2.0625 C 2.109375 -1.914062 2.109375 -1.753906 2.109375 -1.578125 L 2.109375 -0.0625 C 2.109375 0.226562 2.023438 0.445312 1.859375 0.59375 C 1.703125 0.75 1.472656 0.828125 1.171875 0.828125 Z M 1.578125 -1.0625 C 1.578125 -1.269531 1.539062 -1.429688 1.46875 -1.546875 C 1.394531 -1.660156 1.300781 -1.71875 1.1875 -1.71875 C 1.050781 -1.71875 0.953125 -1.660156 0.890625 -1.546875 C 0.828125 -1.429688 0.796875 -1.265625 0.796875 -1.046875 C 0.796875 -0.828125 0.828125 -0.660156 0.890625 -0.546875 C 0.960938 -0.441406 1.054688 -0.390625 1.171875 -0.390625 C 1.304688 -0.390625 1.40625 -0.445312 1.46875 -0.5625 C 1.539062 -0.6875 1.578125 -0.851562 1.578125 -1.0625 Z "/>
</g>
<g id="glyph-0-9">
<path d="M 0.828125 0.03125 C 0.628906 0.03125 0.472656 -0.0195312 0.359375 -0.125 C 0.253906 -0.226562 0.203125 -0.378906 0.203125 -0.578125 C 0.203125 -0.796875 0.265625 -0.957031 0.390625 -1.0625 C 0.523438 -1.175781 0.726562 -1.234375 1 -1.234375 L 1.421875 -1.25 L 1.421875 -1.34375 C 1.421875 -1.476562 1.394531 -1.578125 1.34375 -1.640625 C 1.300781 -1.710938 1.234375 -1.75 1.140625 -1.75 C 1.046875 -1.75 0.972656 -1.722656 0.921875 -1.671875 C 0.878906 -1.628906 0.851562 -1.554688 0.84375 -1.453125 L 0.296875 -1.484375 C 0.359375 -1.890625 0.644531 -2.09375 1.15625 -2.09375 C 1.414062 -2.09375 1.613281 -2.03125 1.75 -1.90625 C 1.882812 -1.78125 1.953125 -1.597656 1.953125 -1.359375 L 1.953125 -0.609375 C 1.953125 -0.492188 1.960938 -0.410156 1.984375 -0.359375 C 2.015625 -0.316406 2.0625 -0.296875 2.125 -0.296875 C 2.164062 -0.296875 2.203125 -0.300781 2.234375 -0.3125 L 2.234375 -0.03125 C 2.203125 -0.0195312 2.171875 -0.0078125 2.140625 0 C 2.117188 0 2.09375 0 2.0625 0 C 2.039062 0.0078125 2.015625 0.015625 1.984375 0.015625 C 1.960938 0.015625 1.929688 0.015625 1.890625 0.015625 C 1.753906 0.015625 1.65625 -0.015625 1.59375 -0.078125 C 1.53125 -0.140625 1.492188 -0.234375 1.484375 -0.359375 L 1.46875 -0.359375 C 1.394531 -0.222656 1.304688 -0.125 1.203125 -0.0625 C 1.097656 0 0.972656 0.03125 0.828125 0.03125 Z M 1.421875 -0.953125 L 1.15625 -0.953125 C 1.039062 -0.941406 0.957031 -0.925781 0.90625 -0.90625 C 0.863281 -0.882812 0.828125 -0.851562 0.796875 -0.8125 C 0.773438 -0.769531 0.765625 -0.707031 0.765625 -0.625 C 0.765625 -0.425781 0.835938 -0.328125 0.984375 -0.328125 C 1.109375 -0.328125 1.210938 -0.375 1.296875 -0.46875 C 1.378906 -0.570312 1.421875 -0.695312 1.421875 -0.84375 Z "/>
</g>
<g id="glyph-0-10">
<path d="M 1.515625 -0.359375 L 2.171875 -0.359375 L 2.171875 0 L 0.21875 0 L 0.21875 -0.359375 L 0.96875 -0.359375 L 0.96875 -1.6875 L 0.421875 -1.6875 L 0.421875 -2.0625 L 1.515625 -2.0625 Z M 0.96875 -2.421875 L 0.96875 -2.8125 L 1.515625 -2.8125 L 1.515625 -2.421875 Z "/>
</g>
<g id="glyph-0-11">
<path d="M 2.09375 -0.59375 C 2.09375 -0.394531 2.007812 -0.238281 1.84375 -0.125 C 1.6875 -0.0195312 1.460938 0.03125 1.171875 0.03125 C 0.890625 0.03125 0.671875 -0.0078125 0.515625 -0.09375 C 0.367188 -0.1875 0.273438 -0.328125 0.234375 -0.515625 L 0.703125 -0.578125 C 0.722656 -0.484375 0.765625 -0.414062 0.828125 -0.375 C 0.898438 -0.332031 1.015625 -0.3125 1.171875 -0.3125 C 1.328125 -0.3125 1.4375 -0.328125 1.5 -0.359375 C 1.570312 -0.398438 1.609375 -0.460938 1.609375 -0.546875 C 1.609375 -0.617188 1.578125 -0.671875 1.515625 -0.703125 C 1.460938 -0.742188 1.375 -0.78125 1.25 -0.8125 C 0.945312 -0.863281 0.742188 -0.914062 0.640625 -0.96875 C 0.535156 -1.019531 0.453125 -1.085938 0.390625 -1.171875 C 0.335938 -1.253906 0.3125 -1.351562 0.3125 -1.46875 C 0.3125 -1.664062 0.382812 -1.816406 0.53125 -1.921875 C 0.6875 -2.035156 0.90625 -2.09375 1.1875 -2.09375 C 1.425781 -2.09375 1.617188 -2.046875 1.765625 -1.953125 C 1.921875 -1.859375 2.015625 -1.722656 2.046875 -1.546875 L 1.578125 -1.484375 C 1.554688 -1.566406 1.515625 -1.628906 1.453125 -1.671875 C 1.398438 -1.710938 1.3125 -1.734375 1.1875 -1.734375 C 1.050781 -1.734375 0.953125 -1.71875 0.890625 -1.6875 C 0.828125 -1.65625 0.796875 -1.601562 0.796875 -1.53125 C 0.796875 -1.46875 0.820312 -1.414062 0.875 -1.375 C 0.925781 -1.34375 1.007812 -1.316406 1.125 -1.296875 C 1.28125 -1.265625 1.421875 -1.226562 1.546875 -1.1875 C 1.671875 -1.15625 1.769531 -1.113281 1.84375 -1.0625 C 1.925781 -1.019531 1.988281 -0.960938 2.03125 -0.890625 C 2.070312 -0.816406 2.09375 -0.71875 2.09375 -0.59375 Z "/>
</g>
<g id="glyph-0-12">
<path d="M 0.625 -1.6875 L 0.3125 -1.6875 L 0.3125 -2.0625 L 0.65625 -2.0625 L 0.8125 -2.59375 L 1.15625 -2.59375 L 1.15625 -2.0625 L 1.875 -2.0625 L 1.875 -1.6875 L 1.15625 -1.6875 L 1.15625 -0.6875 C 1.15625 -0.570312 1.164062 -0.492188 1.1875 -0.453125 C 1.207031 -0.421875 1.238281 -0.394531 1.28125 -0.375 C 1.332031 -0.351562 1.398438 -0.34375 1.484375 -0.34375 C 1.640625 -0.34375 1.800781 -0.359375 1.96875 -0.390625 L 1.96875 -0.03125 C 1.789062 -0.0078125 1.660156 0.00390625 1.578125 0.015625 C 1.503906 0.0234375 1.425781 0.03125 1.34375 0.03125 C 1.1875 0.03125 1.050781 0.0078125 0.9375 -0.03125 C 0.832031 -0.0820312 0.753906 -0.15625 0.703125 -0.25 C 0.648438 -0.34375 0.625 -0.472656 0.625 -0.640625 Z "/>
</g>
<g id="glyph-0-13">
<path d="M 1.1875 0.03125 C 0.863281 0.03125 0.613281 -0.0625 0.4375 -0.25 C 0.269531 -0.4375 0.1875 -0.695312 0.1875 -1.03125 C 0.1875 -1.257812 0.226562 -1.453125 0.3125 -1.609375 C 0.394531 -1.765625 0.507812 -1.882812 0.65625 -1.96875 C 0.8125 -2.050781 0.992188 -2.09375 1.203125 -2.09375 C 1.492188 -2.09375 1.722656 -1.992188 1.890625 -1.796875 C 2.054688 -1.597656 2.140625 -1.3125 2.140625 -0.9375 L 2.140625 -0.921875 L 0.75 -0.921875 C 0.75 -0.734375 0.789062 -0.582031 0.875 -0.46875 C 0.957031 -0.363281 1.070312 -0.3125 1.21875 -0.3125 C 1.3125 -0.3125 1.394531 -0.332031 1.46875 -0.375 C 1.539062 -0.414062 1.585938 -0.476562 1.609375 -0.5625 L 2.109375 -0.515625 C 2.046875 -0.335938 1.929688 -0.203125 1.765625 -0.109375 C 1.609375 -0.015625 1.414062 0.03125 1.1875 0.03125 Z M 1.1875 -1.75 C 1.0625 -1.75 0.957031 -1.707031 0.875 -1.625 C 0.800781 -1.539062 0.757812 -1.421875 0.75 -1.265625 L 1.625 -1.265625 C 1.613281 -1.410156 1.566406 -1.523438 1.484375 -1.609375 C 1.410156 -1.703125 1.3125 -1.75 1.1875 -1.75 Z "/>
</g>
</g>
</defs>
<g fill="rgb(100%, 41.960784%, 41.960784%)" fill-opacity="1">
<use xlink:href="#glyph-0-0" x="30" y="23.238281"/>
<use xlink:href="#glyph-0-1" x="32" y="23.238281"/>
<use xlink:href="#glyph-0-2" x="34" y="23.238281"/>
<use xlink:href="#glyph-0-3" x="36" y="23.238281"/>
<use xlink:href="#glyph-0-3" x="38" y="23.238281"/>
<use xlink:href="#glyph-0-4" x="40" y="23.238281"/>
<use xlink:href="#glyph-0-3" x="42" y="23.238281"/>
<use xlink:href="#glyph-0-3" x="44" y="23.238281"/>
<use xlink:href="#glyph-0-5" x="46" y="23.238281"/>
<use xlink:href="#glyph-0-6" x="48" y="23.238281"/>
<use xlink:href="#glyph-0-7" x="50" y="23.238281"/>
<use xlink:href="#glyph-0-8" x="52" y="23.238281"/>
<use xlink:href="#glyph-0-6" x="54" y="23.238281"/>
<use xlink:href="#glyph-0-3" x="56" y="23.238281"/>
<use xlink:href="#glyph-0-5" x="58" y="23.238281"/>
<use xlink:href="#glyph-0-9" x="60" y="23.238281"/>
<use xlink:href="#glyph-0-7" x="62" y="23.238281"/>
<use xlink:href="#glyph-0-9" x="64" y="23.238281"/>
<use xlink:href="#glyph-0-7" x="66" y="23.238281"/>
<use xlink:href="#glyph-0-3" x="68" y="23.238281"/>
<use xlink:href="#glyph-0-2" x="70" y="23.238281"/>
<use xlink:href="#glyph-0-10" x="72" y="23.238281"/>
<use xlink:href="#glyph-0-11" x="74" y="23.238281"/>
<use xlink:href="#glyph-0-12" x="76" y="23.238281"/>
<use xlink:href="#glyph-0-13" x="78" y="23.238281"/>
<use xlink:href="#glyph-0-11" x="80" y="23.238281"/>
<use xlink:href="#glyph-0-10" x="82" y="23.238281"/>
</g>
</svg>
