<?xml version="1.0" encoding="UTF-8"?>
<svg xmlns="http://www.w3.org/2000/svg" xmlns:xlink="http://www.w3.org/1999/xlink" width="1920" height="1080" viewBox="0 0 1920 1080">
<defs>
<g>
<g id="glyph-0-0">
<path d="M 0.828125 -2.578125 L 0.828125 -1.515625 L 2.296875 -1.515625 L 2.296875 -1.171875 L 0.828125 -1.171875 L 0.828125 0 L 0.421875 0 L 0.421875 -2.921875 L 2.34375 -2.921875 L 2.34375 -2.578125 Z "/>
</g>
<g id="glyph-0-1">
<path d="M 2.390625 -0.234375 C 2.421875 -0.234375 2.460938 -0.238281 2.515625 -0.25 L 2.515625 -0.015625 C 2.410156 0.00390625 2.3125 0.015625 2.21875 0.015625 C 2.070312 0.015625 1.960938 -0.0195312 1.890625 -0.09375 C 1.828125 -0.164062 1.789062 -0.285156 1.78125 -0.453125 L 1.765625 -0.453125 C 1.671875 -0.273438 1.5625 -0.144531 1.4375 -0.0625 C 1.3125 0.0078125 1.15625 0.046875 0.96875 0.046875 C 0.738281 0.046875 0.566406 -0.015625 0.453125 -0.140625 C 0.335938 -0.265625 0.28125 -0.4375 0.28125 -0.65625 C 0.28125 -1.15625 0.609375 -1.410156 1.265625 -1.421875 L 1.765625 -1.4375 L 1.765625 -1.5625 C 1.765625 -1.75 1.726562 -1.882812 1.65625 -1.96875 C 1.582031 -2.050781 1.460938 -2.09375 1.296875 -2.09375 C 1.117188 -2.09375 0.992188 -2.0625 0.921875 -2 C 0.847656 -1.9375 0.800781 -1.84375 0.78125 -1.71875 L 0.375 -1.75 C 0.445312 -2.175781 0.753906 -2.390625 1.296875 -2.390625 C 1.585938 -2.390625 1.804688 -2.320312 1.953125 -2.1875 C 2.097656 -2.050781 2.171875 -1.851562 2.171875 -1.59375 L 2.171875 -0.59375 C 2.171875 -0.476562 2.179688 -0.390625 2.203125 -0.328125 C 2.234375 -0.265625 2.296875 -0.234375 2.390625 -0.234375 Z M 1.0625 -0.25 C 1.207031 -0.25 1.332031 -0.28125 1.4375 -0.34375 C 1.539062 -0.414062 1.617188 -0.503906 1.671875 -0.609375 C 1.734375 -0.722656 1.765625 -0.84375 1.765625 -0.96875 L 1.765625 -1.15625 L 1.359375 -1.140625 C 1.191406 -1.140625 1.0625 -1.125 0.96875 -1.09375 C 0.882812 -1.0625 0.816406 -1.007812 0.765625 -0.9375 C 0.710938 -0.863281 0.6875 -0.765625 0.6875 -0.640625 C 0.6875 -0.523438 0.71875 -0.429688 0.78125 -0.359375 C 0.84375 -0.285156 0.9375 -0.25 1.0625 -0.25 Z "/>
</g>
<g id="glyph-0-2">
<path d="M 1.875 0 L 1.875 -1.5 C 1.875 -1.695312 1.835938 -1.84375 1.765625 -1.9375 C 1.691406 -2.039062 1.570312 -2.09375 1.40625 -2.09375 C 1.226562 -2.09375 1.082031 -2.023438 0.96875 -1.890625 C 0.851562 -1.753906 0.796875 -1.578125 0.796875 -1.359375 L 0.796875 0 L 0.40625 0 L 0.40625 -1.84375 C 0.40625 -2.113281 0.398438 -2.28125 0.390625 -2.34375 L 0.75 -2.34375 C 0.757812 -2.332031 0.765625 -2.3125 0.765625 -2.28125 C 0.765625 -2.25 0.765625 -2.210938 0.765625 -2.171875 C 0.765625 -2.128906 0.769531 -2.050781 0.78125 -1.9375 C 0.925781 -2.238281 1.175781 -2.390625 1.53125 -2.390625 C 1.78125 -2.390625 1.960938 -2.320312 2.078125 -2.1875 C 2.203125 -2.050781 2.265625 -1.84375 2.265625 -1.5625 L 2.265625 0 Z "/>
</g>
</g>
</defs>
<g fill="rgb(30.980392%, 76.470588%, 96.862745%)" fill-opacity="1">
<use xlink:href="#glyph-0-0" x="30" y="23.700195"/>
<use xlink:href="#glyph-0-1" x="33" y="23.700195"/>
<use xlink:href="#glyph-0-2" x="36" y="23.700195"/>
</g>
</svg>
