<?xml version="1.0" encoding="UTF-8"?>
<svg xmlns="http://www.w3.org/2000/svg" xmlns:xlink="http://www.w3.org/1999/xlink" width="1080" height="1920" viewBox="0 0 1080 1920">
<defs>
<g>
<g id="glyph-0-0">
<path d="M 4.46875 -1.8125 C 4.46875 -1.425781 4.382812 -1.09375 4.21875 -0.8125 C 4.0625 -0.53125 3.828125 -0.3125 3.515625 -0.15625 C 3.210938 0 2.851562 0.078125 2.4375 0.078125 C 1.90625 0.078125 1.472656 -0.0351562 1.140625 -0.265625 C 0.816406 -0.503906 0.609375 -0.84375 0.515625 -1.28125 L 1.265625 -1.359375 C 1.421875 -0.796875 1.816406 -0.515625 2.453125 -0.515625 C 2.835938 -0.515625 3.140625 -0.628906 3.359375 -0.859375 C 3.585938 -1.085938 3.703125 -1.398438 3.703125 -1.796875 C 3.703125 -2.128906 3.585938 -2.398438 3.359375 -2.609375 C 3.140625 -2.828125 2.84375 -2.9375 2.46875 -2.9375 C 2.269531 -2.9375 2.082031 -2.90625 1.90625 -2.84375 C 1.738281 -2.78125 1.570312 -2.675781 1.40625 -2.53125 L 0.6875 -2.53125 L 0.875 -5.484375 L 4.140625 -5.484375 L 4.140625 -4.890625 L 1.546875 -4.890625 L 1.4375 -3.171875 C 1.75 -3.410156 2.144531 -3.53125 2.625 -3.53125 C 3.175781 -3.53125 3.617188 -3.367188 3.953125 -3.046875 C 4.296875 -2.734375 4.46875 -2.320312 4.46875 -1.8125 Z "/>
</g>
<g id="glyph-0-1">
<path d="M 4.34375 -4.921875 C 3.0625 -3.078125 2.421875 -1.4375 2.421875 0 L 1.65625 0 C 1.65625 -0.707031 1.820312 -1.472656 2.15625 -2.296875 C 2.488281 -3.128906 2.984375 -3.992188 3.640625 -4.890625 L 0.640625 -4.890625 L 0.640625 -5.484375 L 4.34375 -5.484375 Z "/>
</g>
</g>
</defs>
<g fill="rgb(94.117647%, 92.941176%, 90.980392%)" fill-opacity="1">
<use xlink:href="#glyph-0-0" x="30" y="26.9375"/>
<use xlink:href="#glyph-0-1" x="35" y="26.9375"/>
<use xlink:href="#glyph-0-1" x="40" y="26.9375"/>
</g>
</svg>
