<?xml version="1.0" encoding="UTF-8"?>
<svg xmlns="http://www.w3.org/2000/svg" xmlns:xlink="http://www.w3.org/1999/xlink" width="1080" height="1920" viewBox="0 0 1080 1920">
<defs>
<g>
<g id="glyph-0-0">
<path d="M 5.09375 -3.21875 C 5.09375 -2.144531 4.882812 -1.320312 4.46875 -0.75 C 4.050781 -0.1875 3.453125 0.09375 2.671875 0.09375 C 2.097656 0.09375 1.648438 -0.0234375 1.328125 -0.265625 C 1.003906 -0.515625 0.773438 -0.90625 0.640625 -1.4375 L 1.859375 -1.609375 C 1.972656 -1.148438 2.25 -0.921875 2.6875 -0.921875 C 3.039062 -0.921875 3.316406 -1.082031 3.515625 -1.40625 C 3.710938 -1.726562 3.816406 -2.210938 3.828125 -2.859375 C 3.710938 -2.617188 3.519531 -2.429688 3.25 -2.296875 C 2.988281 -2.171875 2.703125 -2.109375 2.390625 -2.109375 C 1.828125 -2.109375 1.375 -2.296875 1.03125 -2.671875 C 0.695312 -3.054688 0.53125 -3.566406 0.53125 -4.203125 C 0.53125 -4.859375 0.726562 -5.375 1.125 -5.75 C 1.519531 -6.125 2.078125 -6.3125 2.796875 -6.3125 C 3.546875 -6.3125 4.113281 -6.054688 4.5 -5.546875 C 4.894531 -5.035156 5.09375 -4.257812 5.09375 -3.21875 Z M 3.734375 -4.046875 C 3.734375 -4.421875 3.640625 -4.722656 3.453125 -4.953125 C 3.273438 -5.179688 3.046875 -5.296875 2.765625 -5.296875 C 2.484375 -5.296875 2.257812 -5.195312 2.09375 -5 C 1.925781 -4.800781 1.84375 -4.535156 1.84375 -4.203125 C 1.84375 -3.867188 1.925781 -3.597656 2.09375 -3.390625 C 2.257812 -3.179688 2.484375 -3.078125 2.765625 -3.078125 C 3.046875 -3.078125 3.273438 -3.164062 3.453125 -3.34375 C 3.640625 -3.53125 3.734375 -3.765625 3.734375 -4.046875 Z "/>
</g>
<g id="glyph-0-1">
<path d="M 0.5625 0 L 0.5625 -0.90625 C 0.71875 -1.238281 0.9375 -1.570312 1.21875 -1.90625 C 1.507812 -2.25 1.925781 -2.644531 2.46875 -3.09375 C 2.882812 -3.4375 3.15625 -3.671875 3.28125 -3.796875 C 3.414062 -3.929688 3.519531 -4.0625 3.59375 -4.1875 C 3.664062 -4.3125 3.703125 -4.441406 3.703125 -4.578125 C 3.703125 -4.796875 3.628906 -4.96875 3.484375 -5.09375 C 3.335938 -5.21875 3.125 -5.28125 2.84375 -5.28125 C 2.5625 -5.28125 2.347656 -5.203125 2.203125 -5.046875 C 2.054688 -4.898438 1.960938 -4.679688 1.921875 -4.390625 L 0.625 -4.453125 C 0.695312 -5.054688 0.921875 -5.515625 1.296875 -5.828125 C 1.671875 -6.148438 2.179688 -6.3125 2.828125 -6.3125 C 3.503906 -6.3125 4.035156 -6.15625 4.421875 -5.84375 C 4.816406 -5.539062 5.015625 -5.132812 5.015625 -4.625 C 5.015625 -4.289062 4.90625 -3.960938 4.6875 -3.640625 C 4.476562 -3.328125 4.164062 -3.003906 3.75 -2.671875 C 3.15625 -2.210938 2.753906 -1.878906 2.546875 -1.671875 C 2.335938 -1.472656 2.1875 -1.269531 2.09375 -1.0625 L 5.109375 -1.0625 L 5.109375 0 Z "/>
</g>
<g id="glyph-0-2">
<path d="M 5.1875 -1.734375 C 5.1875 -1.148438 4.976562 -0.695312 4.5625 -0.375 C 4.144531 -0.0507812 3.566406 0.109375 2.828125 0.109375 C 2.128906 0.109375 1.570312 -0.0390625 1.15625 -0.34375 C 0.738281 -0.65625 0.492188 -1.109375 0.421875 -1.703125 L 1.75 -1.8125 C 1.820312 -1.226562 2.179688 -0.9375 2.828125 -0.9375 C 3.148438 -0.9375 3.398438 -1.015625 3.578125 -1.171875 C 3.765625 -1.328125 3.859375 -1.539062 3.859375 -1.8125 C 3.859375 -2.082031 3.742188 -2.285156 3.515625 -2.421875 C 3.296875 -2.566406 2.976562 -2.640625 2.5625 -2.640625 L 2.109375 -2.640625 L 2.109375 -3.6875 L 2.546875 -3.6875 C 2.910156 -3.6875 3.191406 -3.753906 3.390625 -3.890625 C 3.597656 -4.035156 3.703125 -4.238281 3.703125 -4.5 C 3.703125 -4.726562 3.617188 -4.914062 3.453125 -5.0625 C 3.285156 -5.207031 3.0625 -5.28125 2.78125 -5.28125 C 2.519531 -5.28125 2.300781 -5.21875 2.125 -5.09375 C 1.957031 -4.96875 1.859375 -4.769531 1.828125 -4.5 L 0.546875 -4.59375 C 0.609375 -5.144531 0.835938 -5.566406 1.234375 -5.859375 C 1.628906 -6.160156 2.15625 -6.3125 2.8125 -6.3125 C 3.257812 -6.3125 3.648438 -6.242188 3.984375 -6.109375 C 4.316406 -5.972656 4.570312 -5.773438 4.75 -5.515625 C 4.925781 -5.265625 5.015625 -4.976562 5.015625 -4.65625 C 5.015625 -4.28125 4.894531 -3.960938 4.65625 -3.703125 C 4.414062 -3.453125 4.070312 -3.285156 3.625 -3.203125 L 3.625 -3.1875 C 4.113281 -3.125 4.492188 -2.960938 4.765625 -2.703125 C 5.046875 -2.453125 5.1875 -2.128906 5.1875 -1.734375 Z "/>
</g>
</g>
</defs>
<g fill="rgb(100%, 29.803922%, 29.803922%)" fill-opacity="1">
<use xlink:href="#glyph-0-0" x="30" y="27.862305"/>
<use xlink:href="#glyph-0-1" x="36" y="27.862305"/>
<use xlink:href="#glyph-0-2" x="42" y="27.862305"/>
<use xlink:href="#glyph-0-1" x="48" y="27.862305"/>
</g>
</svg>
