<?xml version="1.0" encoding="UTF-8"?>
<svg xmlns="http://www.w3.org/2000/svg" xmlns:xlink="http://www.w3.org/1999/xlink" width="1080" height="1920" viewBox="0 0 1080 1920">
<defs>
<g>
<g id="glyph-0-0">
<path d="M 7.9375 -2.65625 C 7.9375 -1.757812 7.613281 -1.066406 6.96875 -0.578125 C 6.332031 -0.0859375 5.453125 0.15625 4.328125 0.15625 C 3.253906 0.15625 2.398438 -0.078125 1.765625 -0.546875 C 1.128906 -1.015625 0.757812 -1.695312 0.65625 -2.59375 L 2.671875 -2.765625 C 2.785156 -1.878906 3.335938 -1.4375 4.328125 -1.4375 C 4.816406 -1.4375 5.203125 -1.554688 5.484375 -1.796875 C 5.765625 -2.035156 5.90625 -2.359375 5.90625 -2.765625 C 5.90625 -3.179688 5.734375 -3.492188 5.390625 -3.703125 C 5.046875 -3.921875 4.554688 -4.03125 3.921875 -4.03125 L 3.234375 -4.03125 L 3.234375 -5.625 L 3.890625 -5.625 C 4.460938 -5.625 4.898438 -5.734375 5.203125 -5.953125 C 5.515625 -6.171875 5.671875 -6.476562 5.671875 -6.875 C 5.671875 -7.226562 5.539062 -7.515625 5.28125 -7.734375 C 5.03125 -7.960938 4.691406 -8.078125 4.265625 -8.078125 C 3.859375 -8.078125 3.519531 -7.976562 3.25 -7.78125 C 2.988281 -7.59375 2.84375 -7.296875 2.8125 -6.890625 L 0.828125 -7.03125 C 0.929688 -7.875 1.285156 -8.519531 1.890625 -8.96875 C 2.503906 -9.425781 3.304688 -9.65625 4.296875 -9.65625 C 4.992188 -9.65625 5.59375 -9.550781 6.09375 -9.34375 C 6.601562 -9.132812 6.992188 -8.835938 7.265625 -8.453125 C 7.535156 -8.066406 7.671875 -7.625 7.671875 -7.125 C 7.671875 -6.539062 7.488281 -6.054688 7.125 -5.671875 C 6.757812 -5.285156 6.238281 -5.03125 5.5625 -4.90625 L 5.5625 -4.875 C 6.289062 -4.789062 6.867188 -4.546875 7.296875 -4.140625 C 7.722656 -3.742188 7.9375 -3.25 7.9375 -2.65625 Z "/>
</g>
<g id="glyph-0-1">
<path d="M 6.90625 -2.015625 L 6.90625 0 L 5.015625 0 L 5.015625 -2.015625 L 0.5 -2.015625 L 0.5 -3.515625 L 4.6875 -9.515625 L 6.90625 -9.515625 L 6.90625 -3.5 L 8.234375 -3.5 L 8.234375 -2.015625 Z M 5.015625 -6.390625 C 5.015625 -6.648438 5.019531 -6.925781 5.03125 -7.21875 C 5.050781 -7.507812 5.066406 -7.703125 5.078125 -7.796875 C 4.960938 -7.523438 4.742188 -7.140625 4.421875 -6.640625 L 2.171875 -3.5 L 5.015625 -3.5 Z "/>
</g>
</g>
</defs>
<g fill="rgb(23.137255%, 90.980392%, 62.745098%)" fill-opacity="1">
<use xlink:href="#glyph-0-0" x="30" y="32.025391"/>
<use xlink:href="#glyph-0-1" x="39" y="32.025391"/>
</g>
</svg>
