<?xml version="1.0" encoding="UTF-8"?>
<svg xmlns="http://www.w3.org/2000/svg" xmlns:xlink="http://www.w3.org/1999/xlink" width="1080" height="1920" viewBox="0 0 1080 1920">
<defs>
<g>
<g id="glyph-0-0">
<path d="M 6.90625 -4.34375 C 6.90625 -2.90625 6.625 -1.800781 6.0625 -1.03125 C 5.5 -0.257812 4.6875 0.125 3.625 0.125 C 2.84375 0.125 2.234375 -0.0390625 1.796875 -0.375 C 1.359375 -0.707031 1.050781 -1.226562 0.875 -1.9375 L 2.515625 -2.171875 C 2.679688 -1.554688 3.054688 -1.25 3.640625 -1.25 C 4.109375 -1.25 4.476562 -1.46875 4.75 -1.90625 C 5.03125 -2.34375 5.175781 -2.992188 5.1875 -3.859375 C 5.019531 -3.546875 4.753906 -3.300781 4.390625 -3.125 C 4.035156 -2.945312 3.648438 -2.859375 3.234375 -2.859375 C 2.472656 -2.859375 1.863281 -3.113281 1.40625 -3.625 C 0.945312 -4.144531 0.71875 -4.835938 0.71875 -5.703125 C 0.71875 -6.585938 0.984375 -7.28125 1.515625 -7.78125 C 2.054688 -8.289062 2.8125 -8.546875 3.78125 -8.546875 C 4.800781 -8.546875 5.578125 -8.203125 6.109375 -7.515625 C 6.640625 -6.828125 6.90625 -5.769531 6.90625 -4.34375 Z M 5.046875 -5.484375 C 5.046875 -5.992188 4.921875 -6.398438 4.671875 -6.703125 C 4.429688 -7.015625 4.117188 -7.171875 3.734375 -7.171875 C 3.359375 -7.171875 3.054688 -7.035156 2.828125 -6.765625 C 2.597656 -6.503906 2.484375 -6.144531 2.484375 -5.6875 C 2.484375 -5.238281 2.597656 -4.875 2.828125 -4.59375 C 3.054688 -4.3125 3.363281 -4.171875 3.75 -4.171875 C 4.125 -4.171875 4.429688 -4.289062 4.671875 -4.53125 C 4.921875 -4.78125 5.046875 -5.097656 5.046875 -5.484375 Z "/>
</g>
</g>
</defs>
<g fill="rgb(100%, 41.960784%, 61.568627%)" fill-opacity="1">
<use xlink:href="#glyph-0-0" x="30" y="30.637695"/>
</g>
</svg>
