<?xml version="1.0" encoding="UTF-8"?>
<svg xmlns="http://www.w3.org/2000/svg" xmlns:xlink="http://www.w3.org/1999/xlink" width="1080" height="1920" viewBox="0 0 1080 1920">
<defs>
<g>
<g id="glyph-0-0">
<path d="M 7.015625 -2.828125 C 7.015625 -2.242188 6.882812 -1.726562 6.625 -1.28125 C 6.363281 -0.84375 5.984375 -0.5 5.484375 -0.25 C 4.992188 0 4.414062 0.125 3.75 0.125 C 2.863281 0.125 2.15625 -0.0703125 1.625 -0.46875 C 1.101562 -0.863281 0.78125 -1.441406 0.65625 -2.203125 L 2.40625 -2.34375 C 2.5 -1.96875 2.660156 -1.691406 2.890625 -1.515625 C 3.117188 -1.347656 3.410156 -1.265625 3.765625 -1.265625 C 4.210938 -1.265625 4.5625 -1.394531 4.8125 -1.65625 C 5.070312 -1.925781 5.203125 -2.304688 5.203125 -2.796875 C 5.203125 -3.222656 5.078125 -3.566406 4.828125 -3.828125 C 4.585938 -4.085938 4.25 -4.21875 3.8125 -4.21875 C 3.320312 -4.21875 2.921875 -4.03125 2.609375 -3.65625 L 0.90625 -3.65625 L 1.203125 -8.421875 L 6.5 -8.421875 L 6.5 -7.109375 L 2.796875 -7.109375 L 2.65625 -5.078125 C 3.082031 -5.453125 3.613281 -5.640625 4.25 -5.640625 C 5.082031 -5.640625 5.75 -5.378906 6.25 -4.859375 C 6.757812 -4.347656 7.015625 -3.671875 7.015625 -2.828125 Z "/>
</g>
</g>
</defs>
<g fill="rgb(100%, 41.960784%, 61.568627%)" fill-opacity="1">
<use xlink:href="#glyph-0-0" x="30" y="30.637695"/>
</g>
</svg>
