<?xml version="1.0" encoding="UTF-8"?>
<svg xmlns="http://www.w3.org/2000/svg" xmlns:xlink="http://www.w3.org/1999/xlink" width="1080" height="1920" viewBox="0 0 1080 1920">
<defs>
<g>
<g id="glyph-0-0">
<path d="M 0.3125 0 L 0.3125 -0.34375 L 0.421875 -0.34375 C 0.546875 -0.34375 0.660156 -0.359375 0.765625 -0.390625 C 0.867188 -0.421875 0.953125 -0.476562 1.015625 -0.5625 C 1.078125 -0.644531 1.109375 -0.773438 1.109375 -0.953125 L 1.109375 -5.03125 C 1.109375 -5.195312 1.078125 -5.316406 1.015625 -5.390625 C 0.953125 -5.472656 0.867188 -5.523438 0.765625 -5.546875 C 0.660156 -5.578125 0.546875 -5.59375 0.421875 -5.59375 L 0.3125 -5.59375 L 0.3125 -5.953125 L 2.546875 -5.953125 C 3.265625 -5.953125 3.800781 -5.828125 4.15625 -5.578125 C 4.507812 -5.335938 4.6875 -4.960938 4.6875 -4.453125 C 4.6875 -4.210938 4.640625 -4.003906 4.546875 -3.828125 C 4.460938 -3.660156 4.34375 -3.519531 4.1875 -3.40625 C 4.03125 -3.300781 3.851562 -3.210938 3.65625 -3.140625 L 3.65625 -3.109375 C 3.914062 -3.066406 4.140625 -2.984375 4.328125 -2.859375 C 4.515625 -2.734375 4.660156 -2.566406 4.765625 -2.359375 C 4.878906 -2.148438 4.9375 -1.898438 4.9375 -1.609375 C 4.9375 -1.066406 4.757812 -0.660156 4.40625 -0.390625 C 4.050781 -0.128906 3.515625 0 2.796875 0 Z M 2.75 -0.421875 C 3.226562 -0.421875 3.5625 -0.507812 3.75 -0.6875 C 3.945312 -0.875 4.046875 -1.1875 4.046875 -1.625 C 4.046875 -1.914062 4.003906 -2.15625 3.921875 -2.34375 C 3.847656 -2.53125 3.71875 -2.671875 3.53125 -2.765625 C 3.351562 -2.859375 3.097656 -2.90625 2.765625 -2.90625 L 1.953125 -2.90625 L 1.953125 -0.421875 Z M 2.53125 -3.328125 C 2.851562 -3.328125 3.101562 -3.363281 3.28125 -3.4375 C 3.46875 -3.519531 3.597656 -3.644531 3.671875 -3.8125 C 3.753906 -3.976562 3.796875 -4.191406 3.796875 -4.453125 C 3.796875 -4.867188 3.695312 -5.148438 3.5 -5.296875 C 3.3125 -5.453125 2.976562 -5.53125 2.5 -5.53125 L 1.953125 -5.53125 L 1.953125 -3.328125 Z "/>
</g>
</g>
</defs>
<g fill="rgb(100%, 100%, 100%)" fill-opacity="1">
<use xlink:href="#glyph-0-0" x="30" y="28.908203"/>
</g>
</svg>
