<?xml version="1.0" encoding="UTF-8"?>
<svg xmlns="http://www.w3.org/2000/svg" xmlns:xlink="http://www.w3.org/1999/xlink" width="1080" height="1920" viewBox="0 0 1080 1920">
<defs>
<g>
<g id="glyph-0-0">
<path d="M 0 0 L 0 -0.34375 L 0.15625 -0.34375 C 0.269531 -0.34375 0.359375 -0.359375 0.421875 -0.390625 C 0.492188 -0.429688 0.554688 -0.5 0.609375 -0.59375 C 0.660156 -0.6875 0.722656 -0.820312 0.796875 -1 L 2.640625 -5.953125 L 3.296875 -5.953125 L 5.171875 -0.796875 C 5.210938 -0.671875 5.257812 -0.578125 5.3125 -0.515625 C 5.363281 -0.453125 5.425781 -0.40625 5.5 -0.375 C 5.570312 -0.351562 5.660156 -0.34375 5.765625 -0.34375 L 5.875 -0.34375 L 5.875 0 L 3.578125 0 L 3.578125 -0.34375 L 3.765625 -0.34375 C 3.929688 -0.34375 4.054688 -0.375 4.140625 -0.4375 C 4.222656 -0.507812 4.265625 -0.613281 4.265625 -0.75 C 4.265625 -0.78125 4.257812 -0.8125 4.25 -0.84375 C 4.25 -0.875 4.242188 -0.90625 4.234375 -0.9375 C 4.234375 -0.976562 4.222656 -1.019531 4.203125 -1.0625 L 3.875 -1.984375 L 1.6875 -1.984375 L 1.359375 -1.109375 C 1.347656 -1.066406 1.335938 -1.023438 1.328125 -0.984375 C 1.316406 -0.941406 1.304688 -0.898438 1.296875 -0.859375 C 1.296875 -0.828125 1.296875 -0.796875 1.296875 -0.765625 C 1.296875 -0.617188 1.335938 -0.507812 1.421875 -0.4375 C 1.515625 -0.375 1.65625 -0.34375 1.84375 -0.34375 L 2.03125 -0.34375 L 2.03125 0 Z M 1.84375 -2.40625 L 3.71875 -2.40625 L 3.203125 -3.859375 C 3.148438 -4.023438 3.097656 -4.179688 3.046875 -4.328125 C 2.992188 -4.484375 2.945312 -4.628906 2.90625 -4.765625 C 2.863281 -4.910156 2.828125 -5.050781 2.796875 -5.1875 C 2.765625 -5.050781 2.726562 -4.921875 2.6875 -4.796875 C 2.65625 -4.671875 2.613281 -4.539062 2.5625 -4.40625 C 2.519531 -4.269531 2.46875 -4.113281 2.40625 -3.9375 Z "/>
</g>
</g>
</defs>
<g fill="rgb(100%, 100%, 100%)" fill-opacity="1">
<use xlink:href="#glyph-0-0" x="30" y="28.908203"/>
</g>
</svg>
