<?xml version="1.0" encoding="UTF-8"?>
<svg xmlns="http://www.w3.org/2000/svg" xmlns:xlink="http://www.w3.org/1999/xlink" width="1080" height="1920" viewBox="0 0 1080 1920">
<defs>
<g>
<g id="glyph-0-0">
<path d="M 0.375 0 L 0.375 -0.703125 L 0.9375 -0.703125 C 1.070312 -0.703125 1.1875 -0.722656 1.28125 -0.765625 C 1.382812 -0.804688 1.460938 -0.890625 1.515625 -1.015625 C 1.578125 -1.140625 1.609375 -1.328125 1.609375 -1.578125 L 1.609375 -7.9375 C 1.609375 -8.195312 1.578125 -8.382812 1.515625 -8.5 C 1.460938 -8.625 1.382812 -8.707031 1.28125 -8.75 C 1.1875 -8.789062 1.070312 -8.8125 0.9375 -8.8125 L 0.375 -8.8125 L 0.375 -9.515625 L 4.96875 -9.515625 L 4.96875 -8.8125 L 4.40625 -8.8125 C 4.28125 -8.8125 4.164062 -8.789062 4.0625 -8.75 C 3.957031 -8.707031 3.875 -8.625 3.8125 -8.5 C 3.757812 -8.382812 3.734375 -8.195312 3.734375 -7.9375 L 3.734375 -1.578125 C 3.734375 -1.328125 3.757812 -1.140625 3.8125 -1.015625 C 3.875 -0.890625 3.957031 -0.804688 4.0625 -0.765625 C 4.164062 -0.722656 4.28125 -0.703125 4.40625 -0.703125 L 4.96875 -0.703125 L 4.96875 0 Z M 2.640625 -10.546875 C 2.316406 -10.546875 2.046875 -10.625 1.828125 -10.78125 C 1.609375 -10.9375 1.5 -11.175781 1.5 -11.5 C 1.5 -11.84375 1.609375 -12.085938 1.828125 -12.234375 C 2.054688 -12.390625 2.328125 -12.46875 2.640625 -12.46875 C 2.941406 -12.46875 3.207031 -12.390625 3.4375 -12.234375 C 3.664062 -12.085938 3.78125 -11.84375 3.78125 -11.5 C 3.78125 -11.175781 3.664062 -10.9375 3.4375 -10.78125 C 3.207031 -10.625 2.941406 -10.546875 2.640625 -10.546875 Z "/>
</g>
<g id="glyph-0-1">
<path d="M 3.078125 0.140625 C 2.441406 0.140625 1.925781 0.0703125 1.53125 -0.0625 C 1.132812 -0.207031 0.847656 -0.394531 0.671875 -0.625 C 0.492188 -0.863281 0.40625 -1.128906 0.40625 -1.421875 C 0.40625 -1.710938 0.472656 -1.929688 0.609375 -2.078125 C 0.753906 -2.222656 0.921875 -2.316406 1.109375 -2.359375 C 1.304688 -2.410156 1.484375 -2.4375 1.640625 -2.4375 C 1.640625 -1.882812 1.769531 -1.445312 2.03125 -1.125 C 2.289062 -0.8125 2.640625 -0.65625 3.078125 -0.65625 C 3.535156 -0.65625 3.867188 -0.742188 4.078125 -0.921875 C 4.285156 -1.097656 4.390625 -1.3125 4.390625 -1.5625 C 4.390625 -1.757812 4.34375 -1.929688 4.25 -2.078125 C 4.15625 -2.222656 3.988281 -2.359375 3.75 -2.484375 C 3.507812 -2.609375 3.179688 -2.742188 2.765625 -2.890625 C 2.285156 -3.054688 1.878906 -3.238281 1.546875 -3.4375 C 1.210938 -3.644531 0.957031 -3.882812 0.78125 -4.15625 C 0.613281 -4.4375 0.53125 -4.78125 0.53125 -5.1875 C 0.53125 -5.894531 0.789062 -6.421875 1.3125 -6.765625 C 1.84375 -7.117188 2.539062 -7.296875 3.40625 -7.296875 C 3.957031 -7.296875 4.40625 -7.234375 4.75 -7.109375 C 5.09375 -6.992188 5.34375 -6.84375 5.5 -6.65625 C 5.65625 -6.46875 5.734375 -6.269531 5.734375 -6.0625 C 5.734375 -5.757812 5.628906 -5.53125 5.421875 -5.375 C 5.210938 -5.21875 4.863281 -5.140625 4.375 -5.140625 C 4.375 -5.585938 4.273438 -5.929688 4.078125 -6.171875 C 3.878906 -6.421875 3.585938 -6.546875 3.203125 -6.546875 C 2.910156 -6.546875 2.65625 -6.472656 2.4375 -6.328125 C 2.226562 -6.191406 2.125 -5.988281 2.125 -5.71875 C 2.125 -5.53125 2.171875 -5.363281 2.265625 -5.21875 C 2.367188 -5.082031 2.550781 -4.945312 2.8125 -4.8125 C 3.082031 -4.675781 3.457031 -4.523438 3.9375 -4.359375 C 4.34375 -4.222656 4.695312 -4.054688 5 -3.859375 C 5.300781 -3.671875 5.535156 -3.441406 5.703125 -3.171875 C 5.878906 -2.898438 5.96875 -2.582031 5.96875 -2.21875 C 5.96875 -1.476562 5.71875 -0.898438 5.21875 -0.484375 C 4.71875 -0.0664062 4.003906 0.140625 3.078125 0.140625 Z "/>
</g>
<g id="glyph-0-2">
<path d="M 0.171875 3.203125 L 0.171875 2.5 L 0.328125 2.5 C 0.460938 2.5 0.601562 2.476562 0.75 2.4375 C 0.894531 2.394531 1.019531 2.3125 1.125 2.1875 C 1.226562 2.0625 1.28125 1.875 1.28125 1.625 L 1.28125 -5.5 C 1.28125 -5.78125 1.238281 -5.984375 1.15625 -6.109375 C 1.082031 -6.234375 0.976562 -6.316406 0.84375 -6.359375 C 0.707031 -6.410156 0.554688 -6.4375 0.390625 -6.4375 L 0.296875 -6.4375 L 0.296875 -7.140625 L 2.90625 -7.140625 L 3.140625 -6.109375 L 3.203125 -6.109375 C 3.390625 -6.453125 3.644531 -6.734375 3.96875 -6.953125 C 4.300781 -7.171875 4.722656 -7.28125 5.234375 -7.28125 C 6.128906 -7.28125 6.804688 -6.976562 7.265625 -6.375 C 7.734375 -5.78125 7.96875 -4.835938 7.96875 -3.546875 C 7.96875 -2.253906 7.738281 -1.3125 7.28125 -0.71875 C 6.820312 -0.132812 6.160156 0.15625 5.296875 0.15625 C 4.785156 0.15625 4.367188 0.0625 4.046875 -0.125 C 3.734375 -0.3125 3.484375 -0.570312 3.296875 -0.90625 L 3.203125 -0.90625 C 3.210938 -0.78125 3.226562 -0.613281 3.25 -0.40625 C 3.269531 -0.195312 3.285156 0.00390625 3.296875 0.203125 C 3.304688 0.398438 3.3125 0.566406 3.3125 0.703125 L 3.3125 1.625 C 3.3125 1.875 3.359375 2.0625 3.453125 2.1875 C 3.554688 2.3125 3.679688 2.394531 3.828125 2.4375 C 3.984375 2.476562 4.125 2.5 4.25 2.5 L 4.546875 2.5 L 4.546875 3.203125 Z M 4.671875 -0.828125 C 5.109375 -0.828125 5.425781 -1.050781 5.625 -1.5 C 5.820312 -1.945312 5.921875 -2.625 5.921875 -3.53125 C 5.921875 -4.414062 5.820312 -5.09375 5.625 -5.5625 C 5.4375 -6.039062 5.117188 -6.28125 4.671875 -6.28125 C 4.316406 -6.28125 4.039062 -6.175781 3.84375 -5.96875 C 3.644531 -5.757812 3.503906 -5.445312 3.421875 -5.03125 C 3.347656 -4.625 3.3125 -4.128906 3.3125 -3.546875 C 3.3125 -2.929688 3.347656 -2.421875 3.421875 -2.015625 C 3.503906 -1.609375 3.644531 -1.304688 3.84375 -1.109375 C 4.039062 -0.921875 4.316406 -0.828125 4.671875 -0.828125 Z "/>
</g>
<g id="glyph-0-3">
<path d="M 2.6875 0.140625 C 2.300781 0.140625 1.945312 0.0625 1.625 -0.09375 C 1.3125 -0.25 1.0625 -0.488281 0.875 -0.8125 C 0.6875 -1.144531 0.59375 -1.554688 0.59375 -2.046875 C 0.59375 -2.765625 0.84375 -3.296875 1.34375 -3.640625 C 1.84375 -3.984375 2.585938 -4.175781 3.578125 -4.21875 L 4.671875 -4.25 L 4.671875 -4.984375 C 4.671875 -5.285156 4.65625 -5.550781 4.625 -5.78125 C 4.59375 -6.007812 4.515625 -6.1875 4.390625 -6.3125 C 4.273438 -6.4375 4.097656 -6.5 3.859375 -6.5 C 3.628906 -6.5 3.445312 -6.4375 3.3125 -6.3125 C 3.1875 -6.1875 3.09375 -6.015625 3.03125 -5.796875 C 2.976562 -5.585938 2.953125 -5.34375 2.953125 -5.0625 C 2.359375 -5.0625 1.910156 -5.128906 1.609375 -5.265625 C 1.304688 -5.398438 1.15625 -5.628906 1.15625 -5.953125 C 1.15625 -6.285156 1.28125 -6.546875 1.53125 -6.734375 C 1.78125 -6.929688 2.113281 -7.078125 2.53125 -7.171875 C 2.945312 -7.265625 3.40625 -7.3125 3.90625 -7.3125 C 4.84375 -7.3125 5.539062 -7.140625 6 -6.796875 C 6.46875 -6.460938 6.703125 -5.878906 6.703125 -5.046875 L 6.703125 -1.65625 C 6.703125 -1.414062 6.722656 -1.222656 6.765625 -1.078125 C 6.816406 -0.941406 6.898438 -0.84375 7.015625 -0.78125 C 7.140625 -0.726562 7.300781 -0.703125 7.5 -0.703125 L 7.5625 -0.703125 L 7.5625 0 L 5.078125 0 L 4.796875 -0.921875 L 4.671875 -0.921875 C 4.484375 -0.679688 4.300781 -0.484375 4.125 -0.328125 C 3.945312 -0.171875 3.75 -0.0546875 3.53125 0.015625 C 3.3125 0.0976562 3.03125 0.140625 2.6875 0.140625 Z M 3.421875 -0.84375 C 3.679688 -0.84375 3.90625 -0.910156 4.09375 -1.046875 C 4.28125 -1.179688 4.421875 -1.378906 4.515625 -1.640625 C 4.617188 -1.898438 4.671875 -2.203125 4.671875 -2.546875 L 4.671875 -3.546875 L 4.078125 -3.5 C 3.722656 -3.488281 3.441406 -3.421875 3.234375 -3.296875 C 3.035156 -3.179688 2.890625 -3.015625 2.796875 -2.796875 C 2.710938 -2.578125 2.671875 -2.304688 2.671875 -1.984375 C 2.671875 -1.734375 2.695312 -1.519531 2.75 -1.34375 C 2.800781 -1.175781 2.882812 -1.050781 3 -0.96875 C 3.113281 -0.882812 3.253906 -0.84375 3.421875 -0.84375 Z "/>
</g>
<g id="glyph-0-4">
<path d="M 3.234375 0.140625 C 2.640625 0.140625 2.164062 -0.015625 1.8125 -0.328125 C 1.457031 -0.640625 1.28125 -1.1875 1.28125 -1.96875 L 1.28125 -6.234375 L 0.28125 -6.234375 L 0.28125 -6.921875 C 0.5625 -6.921875 0.816406 -6.976562 1.046875 -7.09375 C 1.273438 -7.207031 1.457031 -7.335938 1.59375 -7.484375 C 1.71875 -7.617188 1.832031 -7.796875 1.9375 -8.015625 C 2.050781 -8.234375 2.140625 -8.492188 2.203125 -8.796875 L 3.3125 -8.796875 L 3.3125 -7.140625 L 5.015625 -7.140625 L 5.015625 -6.234375 L 3.3125 -6.234375 L 3.3125 -2.109375 C 3.3125 -1.703125 3.378906 -1.40625 3.515625 -1.21875 C 3.648438 -1.039062 3.875 -0.953125 4.1875 -0.953125 C 4.363281 -0.953125 4.53125 -0.960938 4.6875 -0.984375 C 4.84375 -1.003906 4.988281 -1.03125 5.125 -1.0625 L 5.125 -0.203125 C 4.988281 -0.140625 4.753906 -0.0664062 4.421875 0.015625 C 4.097656 0.0976562 3.703125 0.140625 3.234375 0.140625 Z "/>
</g>
<g id="glyph-0-5">
</g>
<g id="glyph-0-6">
<path d="M 0.46875 0 L 0.46875 -1.375 L 2.4375 -3.390625 C 2.988281 -3.941406 3.410156 -4.429688 3.703125 -4.859375 C 3.992188 -5.285156 4.195312 -5.691406 4.3125 -6.078125 C 4.425781 -6.472656 4.484375 -6.90625 4.484375 -7.375 C 4.484375 -7.707031 4.441406 -7.984375 4.359375 -8.203125 C 4.273438 -8.421875 4.15625 -8.582031 4 -8.6875 C 3.84375 -8.789062 3.660156 -8.84375 3.453125 -8.84375 C 3.148438 -8.84375 2.910156 -8.753906 2.734375 -8.578125 C 2.554688 -8.398438 2.425781 -8.140625 2.34375 -7.796875 C 2.257812 -7.460938 2.21875 -7.039062 2.21875 -6.53125 C 1.882812 -6.53125 1.585938 -6.570312 1.328125 -6.65625 C 1.078125 -6.75 0.878906 -6.890625 0.734375 -7.078125 C 0.585938 -7.273438 0.515625 -7.53125 0.515625 -7.84375 C 0.515625 -8.164062 0.625 -8.460938 0.84375 -8.734375 C 1.0625 -9.015625 1.390625 -9.238281 1.828125 -9.40625 C 2.265625 -9.570312 2.804688 -9.65625 3.453125 -9.65625 C 4.117188 -9.65625 4.675781 -9.5625 5.125 -9.375 C 5.582031 -9.195312 5.925781 -8.941406 6.15625 -8.609375 C 6.382812 -8.285156 6.5 -7.894531 6.5 -7.4375 C 6.5 -7.1875 6.460938 -6.941406 6.390625 -6.703125 C 6.328125 -6.472656 6.21875 -6.226562 6.0625 -5.96875 C 5.90625 -5.707031 5.691406 -5.425781 5.421875 -5.125 C 5.160156 -4.820312 4.832031 -4.472656 4.4375 -4.078125 C 4.050781 -3.679688 3.59375 -3.234375 3.0625 -2.734375 L 1.734375 -1.46875 L 4.84375 -1.46875 C 5.113281 -1.46875 5.34375 -1.546875 5.53125 -1.703125 C 5.726562 -1.867188 5.863281 -2.097656 5.9375 -2.390625 L 6.046875 -2.796875 L 6.84375 -2.796875 L 6.765625 0 Z "/>
</g>
</g>
</defs>
<g fill="rgb(94.509804%, 76.862745%, 5.882353%)" fill-opacity="1">
<use xlink:href="#glyph-0-0" x="30" y="34.25293"/>
<use xlink:href="#glyph-0-1" x="35" y="34.25293"/>
<use xlink:href="#glyph-0-2" x="42" y="34.25293"/>
<use xlink:href="#glyph-0-3" x="51" y="34.25293"/>
<use xlink:href="#glyph-0-4" x="59" y="34.25293"/>
<use xlink:href="#glyph-0-5" x="64" y="34.25293"/>
<use xlink:href="#glyph-0-6" x="67" y="34.25293"/>
</g>
</svg>
