<?xml version="1.0" encoding="UTF-8"?>
<svg xmlns="http://www.w3.org/2000/svg" xmlns:xlink="http://www.w3.org/1999/xlink" width="1920" height="1080" viewBox="0 0 1920 1080">
<defs>
<g>
<g id="glyph-0-0">
<path d="M 0.234375 0 L 0.234375 -0.375 L 0.359375 -0.375 C 0.492188 -0.375 0.613281 -0.390625 0.71875 -0.421875 C 0.832031 -0.453125 0.921875 -0.507812 0.984375 -0.59375 C 1.046875 -0.6875 1.078125 -0.828125 1.078125 -1.015625 L 1.078125 -4.34375 L 0.28125 -4.34375 L 0.28125 -4.765625 L 1.078125 -4.765625 L 1.078125 -5.203125 C 1.078125 -5.734375 1.21875 -6.140625 1.5 -6.421875 C 1.78125 -6.703125 2.164062 -6.84375 2.65625 -6.84375 C 2.96875 -6.84375 3.210938 -6.816406 3.390625 -6.765625 C 3.566406 -6.710938 3.695312 -6.640625 3.78125 -6.546875 C 3.863281 -6.453125 3.90625 -6.34375 3.90625 -6.21875 C 3.90625 -6.113281 3.875 -6.023438 3.8125 -5.953125 C 3.75 -5.878906 3.660156 -5.820312 3.546875 -5.78125 C 3.441406 -5.738281 3.316406 -5.71875 3.171875 -5.71875 C 3.171875 -5.84375 3.148438 -5.957031 3.109375 -6.0625 C 3.078125 -6.175781 3.019531 -6.265625 2.9375 -6.328125 C 2.851562 -6.398438 2.738281 -6.4375 2.59375 -6.4375 C 2.332031 -6.4375 2.15625 -6.335938 2.0625 -6.140625 C 1.96875 -5.941406 1.921875 -5.660156 1.921875 -5.296875 L 1.921875 -4.765625 L 3.171875 -4.765625 L 3.171875 -4.34375 L 1.921875 -4.34375 L 1.921875 -1.015625 C 1.921875 -0.828125 1.953125 -0.6875 2.015625 -0.59375 C 2.078125 -0.507812 2.164062 -0.453125 2.28125 -0.421875 C 2.394531 -0.390625 2.519531 -0.375 2.65625 -0.375 L 2.984375 -0.375 L 2.984375 0 Z "/>
</g>
<g id="glyph-0-1">
</g>
<g id="glyph-0-2">
<path d="M 0.578125 -3.78125 L 0.578125 -4.3125 L 4.390625 -4.3125 L 4.390625 -3.78125 Z M 0.578125 -2.03125 L 0.578125 -2.5625 L 4.390625 -2.5625 L 4.390625 -2.03125 Z "/>
</g>
<g id="glyph-0-3">
<path d="M 0.859375 0 L 0.859375 -0.375 L 1.453125 -0.375 C 1.585938 -0.375 1.707031 -0.390625 1.8125 -0.421875 C 1.925781 -0.453125 2.015625 -0.507812 2.078125 -0.59375 C 2.140625 -0.6875 2.171875 -0.828125 2.171875 -1.015625 L 2.171875 -5.6875 C 1.953125 -5.40625 1.75 -5.175781 1.5625 -5 C 1.382812 -4.832031 1.207031 -4.75 1.03125 -4.75 C 0.894531 -4.75 0.785156 -4.789062 0.703125 -4.875 C 0.628906 -4.96875 0.59375 -5.085938 0.59375 -5.234375 C 0.769531 -5.285156 0.957031 -5.359375 1.15625 -5.453125 C 1.351562 -5.546875 1.597656 -5.703125 1.890625 -5.921875 L 2.5 -6.390625 L 3.078125 -6.390625 L 3.078125 -1.015625 C 3.078125 -0.828125 3.109375 -0.6875 3.171875 -0.59375 C 3.234375 -0.507812 3.320312 -0.453125 3.4375 -0.421875 C 3.550781 -0.390625 3.675781 -0.375 3.8125 -0.375 L 4.234375 -0.375 L 4.234375 0 Z "/>
</g>
<g id="glyph-0-4">
<path d="M 1.109375 0.0625 C 0.953125 0.0625 0.816406 0.0195312 0.703125 -0.0625 C 0.597656 -0.15625 0.546875 -0.316406 0.546875 -0.546875 C 0.546875 -0.773438 0.597656 -0.929688 0.703125 -1.015625 C 0.816406 -1.097656 0.953125 -1.140625 1.109375 -1.140625 C 1.265625 -1.140625 1.394531 -1.097656 1.5 -1.015625 C 1.613281 -0.929688 1.671875 -0.773438 1.671875 -0.546875 C 1.671875 -0.316406 1.613281 -0.15625 1.5 -0.0625 C 1.394531 0.0195312 1.265625 0.0625 1.109375 0.0625 Z "/>
</g>
<g id="glyph-0-5">
<path d="M 1.90625 0 L 1.90625 -0.375 L 2.15625 -0.375 C 2.289062 -0.375 2.410156 -0.390625 2.515625 -0.421875 C 2.628906 -0.453125 2.71875 -0.507812 2.78125 -0.59375 C 2.851562 -0.6875 2.890625 -0.828125 2.890625 -1.015625 L 2.890625 -1.75 L 0.15625 -1.75 L 0.15625 -2.109375 L 2.890625 -6.34375 L 3.75 -6.34375 L 3.75 -2.234375 L 4.84375 -2.234375 L 4.84375 -1.75 L 3.75 -1.75 L 3.75 -1.015625 C 3.75 -0.828125 3.78125 -0.6875 3.84375 -0.59375 C 3.90625 -0.507812 3.992188 -0.453125 4.109375 -0.421875 C 4.222656 -0.390625 4.34375 -0.375 4.46875 -0.375 L 4.59375 -0.375 L 4.59375 0 Z M 0.796875 -2.234375 L 2.890625 -2.234375 L 2.890625 -3.890625 C 2.890625 -4.054688 2.890625 -4.25 2.890625 -4.46875 C 2.890625 -4.6875 2.894531 -4.90625 2.90625 -5.125 C 2.925781 -5.34375 2.941406 -5.539062 2.953125 -5.71875 C 2.921875 -5.664062 2.875 -5.578125 2.8125 -5.453125 C 2.75 -5.335938 2.675781 -5.207031 2.59375 -5.0625 C 2.507812 -4.925781 2.425781 -4.796875 2.34375 -4.671875 C 2.269531 -4.546875 2.207031 -4.441406 2.15625 -4.359375 Z "/>
</g>
<g id="glyph-0-6">
<path d="M 0.34375 0 L 0.34375 -0.375 L 0.453125 -0.375 C 0.585938 -0.375 0.707031 -0.390625 0.8125 -0.421875 C 0.925781 -0.453125 1.015625 -0.507812 1.078125 -0.59375 C 1.148438 -0.6875 1.1875 -0.828125 1.1875 -1.015625 L 1.1875 -5.375 C 1.1875 -5.550781 1.148438 -5.679688 1.078125 -5.765625 C 1.015625 -5.847656 0.925781 -5.898438 0.8125 -5.921875 C 0.707031 -5.953125 0.585938 -5.96875 0.453125 -5.96875 L 0.34375 -5.96875 L 0.34375 -6.34375 L 2.921875 -6.34375 L 2.921875 -5.96875 L 2.8125 -5.96875 C 2.675781 -5.96875 2.550781 -5.953125 2.4375 -5.921875 C 2.332031 -5.898438 2.242188 -5.84375 2.171875 -5.75 C 2.109375 -5.664062 2.078125 -5.523438 2.078125 -5.328125 L 2.078125 -3.53125 L 4.96875 -3.53125 L 4.96875 -5.328125 C 4.96875 -5.523438 4.9375 -5.664062 4.875 -5.75 C 4.8125 -5.84375 4.722656 -5.898438 4.609375 -5.921875 C 4.503906 -5.953125 4.378906 -5.96875 4.234375 -5.96875 L 4.125 -5.96875 L 4.125 -6.34375 L 6.71875 -6.34375 L 6.71875 -5.96875 L 6.59375 -5.96875 C 6.46875 -5.96875 6.347656 -5.953125 6.234375 -5.921875 C 6.117188 -5.898438 6.03125 -5.84375 5.96875 -5.75 C 5.90625 -5.664062 5.875 -5.523438 5.875 -5.328125 L 5.875 -0.96875 C 5.875 -0.800781 5.90625 -0.671875 5.96875 -0.578125 C 6.039062 -0.492188 6.128906 -0.4375 6.234375 -0.40625 C 6.347656 -0.382812 6.46875 -0.375 6.59375 -0.375 L 6.71875 -0.375 L 6.71875 0 L 4.125 0 L 4.125 -0.375 L 4.234375 -0.375 C 4.378906 -0.375 4.503906 -0.390625 4.609375 -0.421875 C 4.722656 -0.453125 4.8125 -0.507812 4.875 -0.59375 C 4.9375 -0.6875 4.96875 -0.828125 4.96875 -1.015625 L 4.96875 -3.09375 L 2.078125 -3.09375 L 2.078125 -1.015625 C 2.078125 -0.828125 2.109375 -0.6875 2.171875 -0.59375 C 2.242188 -0.507812 2.332031 -0.453125 2.4375 -0.421875 C 2.550781 -0.390625 2.675781 -0.375 2.8125 -0.375 L 2.921875 -0.375 L 2.921875 0 Z "/>
</g>
<g id="glyph-0-7">
<path d="M 0.375 0 L 0.375 -0.359375 L 2.953125 -4.265625 L 1.5625 -4.265625 C 1.320312 -4.265625 1.164062 -4.203125 1.09375 -4.078125 C 1.019531 -3.953125 0.945312 -3.769531 0.875 -3.53125 L 0.875 -3.5 L 0.5 -3.5 L 0.59375 -4.765625 L 3.984375 -4.765625 L 3.984375 -4.40625 L 1.40625 -0.5 L 3.015625 -0.5 C 3.222656 -0.5 3.363281 -0.570312 3.4375 -0.71875 C 3.519531 -0.875 3.582031 -1.046875 3.625 -1.234375 L 3.671875 -1.4375 L 4.046875 -1.4375 L 4 0 Z "/>
</g>
</g>
</defs>
<g fill="rgb(0%, 83.137255%, 100%)" fill-opacity="1">
<use xlink:href="#glyph-0-0" x="30" y="29.50293"/>
<use xlink:href="#glyph-0-1" x="33" y="29.50293"/>
<use xlink:href="#glyph-0-2" x="35" y="29.50293"/>
<use xlink:href="#glyph-0-1" x="40" y="29.50293"/>
<use xlink:href="#glyph-0-3" x="42" y="29.50293"/>
<use xlink:href="#glyph-0-4" x="47" y="29.50293"/>
<use xlink:href="#glyph-0-5" x="49" y="29.50293"/>
<use xlink:href="#glyph-0-1" x="54" y="29.50293"/>
<use xlink:href="#glyph-0-6" x="56" y="29.50293"/>
<use xlink:href="#glyph-0-7" x="63" y="29.50293"/>
</g>
</svg>
